<svg width="123" height="87" viewBox="0 0 123 87" fill="none" xmlns="http://www.w3.org/2000/svg">
<path opacity="0.1" d="M41.507 86.9518C47.4483 86.9518 52.2647 86.1731 52.2647 85.2124C52.2647 84.2517 47.4483 83.4729 41.507 83.4729C35.5657 83.4729 30.7493 84.2517 30.7493 85.2124C30.7493 86.1731 35.5657 86.9518 41.507 86.9518Z" fill="white"/>
<path opacity="0.1" d="M99.9842 87.0007C107.398 87.0007 113.408 86.2219 113.408 85.2613C113.408 84.3006 107.398 83.5218 99.9842 83.5218C92.5704 83.5218 86.5603 84.3006 86.5603 85.2613C86.5603 86.2219 92.5704 87.0007 99.9842 87.0007Z" fill="white"/>
<path opacity="0.1" d="M2.475 37.5911H13.6798V52.9662H3.2953C3.2677 53.124 3.2412 53.2829 3.21249 53.4419H13.6798V65.8416C13.6611 65.836 13.6445 65.8293 13.6268 65.8227C13.3309 65.7048 13.0373 65.5804 12.7436 65.447L12.5559 65.3614C12.2615 65.2214 11.9671 65.0732 11.6727 64.9168C11.57 64.8623 11.4673 64.8057 11.3658 64.7479C9.73134 63.8261 8.24655 62.6582 6.96289 61.2845C6.92535 61.2478 6.89003 61.2089 6.85249 61.1733C6.67364 60.9777 6.49809 60.7799 6.32807 60.5776L6.14039 60.3553C5.93945 60.1074 5.74514 59.8529 5.55635 59.595C5.52875 59.5572 5.50226 59.5195 5.47355 59.4839C4.70575 58.4121 4.06823 57.2516 3.57462 56.0272C3.55916 55.9905 3.54591 55.9505 3.53156 55.916C3.37994 55.5233 3.24561 55.1269 3.12859 54.7268C3.0778 54.5589 3.02922 54.3933 2.98727 54.2188C2.97181 54.1677 2.95857 54.1177 2.94642 54.0676C2.31933 51.6035 2.24536 49.0438 2.24536 46.5018C2.24536 46.205 2.24536 45.9072 2.24536 45.6126C2.24536 44.5845 2.25751 43.5497 2.27517 42.516C2.27517 42.2482 2.28621 41.9814 2.29173 41.7124C2.30719 41.03 2.32927 40.3475 2.35797 39.6651C2.3646 39.475 2.37343 39.2861 2.38337 39.0971C2.38337 38.9882 2.38889 38.8793 2.39993 38.7703C2.42642 38.3747 2.4485 37.9823 2.475 37.5911Z" fill="white"/>
<path opacity="0.1" d="M13.6798 20.472H7.53369C8.53278 18.8977 9.6244 17.3848 10.8027 15.9416C11.7158 14.8123 12.6796 13.712 13.6798 12.6516V20.472Z" fill="white"/>
<path opacity="0.1" d="M13.6798 20.9478V37.1153H2.51031C2.51031 37.0687 2.51804 37.0209 2.52136 36.9742C2.53129 36.8464 2.54123 36.7185 2.55227 36.5918C2.56441 36.4429 2.57766 36.2928 2.59201 36.1472C2.60637 36.0016 2.62182 35.8238 2.63838 35.6626C2.65494 35.5015 2.6704 35.3381 2.68917 35.1769C2.70794 35.0158 2.7245 34.8546 2.74437 34.6945C2.76424 34.5345 2.78191 34.3722 2.80288 34.2122C2.81944 34.0788 2.83711 33.9465 2.85477 33.8131C2.88017 33.6253 2.90666 33.4363 2.93537 33.2496C2.93537 33.2218 2.9431 33.1929 2.94751 33.1663C3.14902 31.7993 3.42358 30.4443 3.77002 29.1071C4.13265 27.7044 4.59571 26.33 5.15558 24.9947C5.75061 23.5977 6.44731 22.2469 7.23999 20.9533L13.6798 20.9478Z" fill="white"/>
<path opacity="0.1" d="M16.3549 37.5899V52.9661H40.287V37.5899H16.3549ZM16.3549 53.4407V66.6451C16.4918 66.674 16.6276 66.7017 16.7623 66.7251C16.9456 66.7607 17.1277 66.7929 17.3143 66.8207C17.3497 66.8262 17.3861 66.8318 17.4247 66.8351C17.4976 66.8474 17.5727 66.8574 17.6455 66.8674C17.8299 66.8929 18.0132 66.914 18.1975 66.9307C18.2848 66.9396 18.3731 66.9474 18.4614 66.954L18.6745 66.9707C18.7904 66.9796 18.9052 66.9863 19.0189 66.9896C19.0896 66.9896 19.1603 66.9963 19.2331 66.9985C19.2883 66.9985 19.3435 66.9985 19.4009 66.9985C19.4584 66.9985 19.5401 66.9985 19.6096 66.9985C19.7046 66.9985 19.7995 66.9985 19.8933 66.9985H20.0203C20.1153 66.9985 20.2102 66.9985 20.304 66.9896H20.3107C20.3758 66.9896 20.442 66.9896 20.5083 66.9807C20.5267 66.9818 20.5451 66.9818 20.5635 66.9807C20.6187 66.9807 20.6739 66.9807 20.7269 66.9729H20.7655L21.1354 66.944C21.2568 66.9329 21.3794 66.9185 21.503 66.9051L21.7547 66.8751C22.7788 66.7307 23.7915 66.5138 24.7853 66.226C27.0177 65.5992 29.2014 64.7222 31.4327 64.0798C34.3175 63.2517 37.5049 62.8449 40.2925 63.8575V53.4407H16.3549ZM40.287 20.4719V0.0018177C37.6669 -0.0267611 35.0538 0.281764 32.5113 0.919901C26.4513 2.45263 21.0139 5.77707 16.3549 10.0229V20.4708H17.5561V20.9454H16.3549V37.1152H40.287V20.9466H22.4878V20.4719H40.287ZM71.0266 13.5574C69.5273 13.5041 68.0369 13.0261 66.6889 12.2881C64.1109 10.8765 62.0519 8.69693 59.7511 6.85743C54.9707 3.02616 49.042 0.714276 42.9599 0.140753V20.4719H77.1242L77.2092 20.3819L71.0266 13.5574ZM74.1389 13.0017L77.4388 16.6473V12.0458C76.3337 12.1836 75.3655 12.5115 74.1433 12.9972L74.1389 13.0017ZM77.4388 69.9239V53.4407H70.4072C70.3885 53.3707 70.3697 53.2995 70.3476 53.2284C70.3686 53.2995 70.3863 53.3707 70.4061 53.4407H42.9643V65.3613C43.2249 65.5558 43.4821 65.7603 43.7371 65.9682C44.012 66.1905 44.2836 66.425 44.5563 66.6551L44.8312 66.884C44.9626 66.9952 45.0951 67.1063 45.2287 67.2108C45.4936 67.4272 45.7612 67.6406 46.0313 67.851C46.1649 67.9622 46.3018 68.0622 46.4376 68.1667C48.5934 69.8261 50.8676 71.3236 53.2417 72.647C53.7739 72.9434 54.3108 73.2328 54.8525 73.5151C55.2136 73.7007 55.5768 73.8852 55.9411 74.0642C56.4887 74.3332 57.0407 74.5925 57.5972 74.8422C62.7272 77.1606 68.1518 78.7515 73.716 79.5694C74.9518 79.7531 76.1924 79.8976 77.4377 80.0028V69.9228H77.5481L77.4388 69.9239ZM42.9643 20.9466V37.1152H77.4432V20.9466H42.9643ZM42.9643 37.5899V52.9661H77.4432V37.5899H42.9643ZM80.1194 12.0258V17.1586L84.3313 12.506C82.9358 12.2792 81.5318 12.1173 80.1194 12.0203V12.0258ZM80.1194 37.5954V52.9661H113.654V37.5899L80.1194 37.5954ZM113.532 71.1443L113.65 53.4407H80.1194V80.1796C82.2795 80.2709 84.4428 80.2449 86.6001 80.1017H86.6376C87.6681 80.0365 88.6937 79.9417 89.7146 79.8172H89.7377C95.184 79.1791 100.509 77.7485 105.547 75.5703M120.121 40.1218C119.995 39.8228 119.863 39.5261 119.73 39.2326C119.48 38.6769 119.217 38.1367 118.945 37.5965H116.328V52.9661H122.944C122.94 48.6135 121.846 44.1676 120.124 40.1162L120.121 40.1218ZM116.328 53.4462V68.6735C118.192 66.8751 119.766 64.8178 120.9 62.4659C122.264 59.6338 122.887 56.5673 122.938 53.444L116.328 53.4462ZM116.328 33.115V37.1164H118.7C117.982 35.7389 117.192 34.4014 116.332 33.1095L116.328 33.115ZM93.5853 15.0424C93.4109 14.9757 93.2364 14.9079 93.0609 14.8423C91.2095 14.154 89.3176 13.5816 87.3961 13.1284L80.9508 20.2497L80.8271 20.3819L80.9099 20.4731H103.849C100.655 18.259 97.2103 16.4342 93.5886 15.0368L93.5853 15.0424ZM104.522 20.9521H80.5897L80.1194 21.3856V37.1152H84.2419H84.2485H113.659V29.4961C110.998 26.2567 107.928 23.3824 104.525 20.9466L104.522 20.9521Z" fill="white"/>
<path opacity="0.1" d="M13.6798 29.1025V37.1152H2.51031C2.51031 37.0685 2.51804 37.0207 2.52136 36.974C2.53129 36.8462 2.54123 36.7184 2.55227 36.5917C2.56441 36.4428 2.57766 36.2927 2.59201 36.1471C2.60637 36.0015 2.62182 35.8237 2.63838 35.6625C2.65494 35.5013 2.6704 35.3379 2.68917 35.1768C2.70794 35.0156 2.7245 34.8544 2.74437 34.6944C2.76424 34.5343 2.78191 34.3721 2.80288 34.212C2.81944 34.0786 2.83711 33.9464 2.85477 33.813C2.88017 33.6252 2.90666 33.4362 2.93537 33.2495C2.93537 33.2217 2.9431 33.1928 2.94751 33.1661C3.14902 31.7992 3.42358 30.4442 3.77002 29.107L13.6798 29.1025Z" fill="white"/>
<path opacity="0.1" d="M2.475 37.5911H13.6798V52.9662H3.2953C3.2677 53.124 3.2412 53.2829 3.21249 53.4419H13.6798V65.8416C13.6611 65.836 13.6445 65.8293 13.6268 65.8227C13.3309 65.7048 13.0373 65.5804 12.7436 65.447L12.5559 65.3614C12.2615 65.2214 11.9671 65.0732 11.6727 64.9168C11.57 64.8623 11.4673 64.8057 11.3658 64.7479C9.73134 63.8261 8.24655 62.6582 6.96289 61.2845C6.92535 61.2478 6.89003 61.2089 6.85249 61.1733C6.67364 60.9777 6.49809 60.7799 6.32807 60.5776L6.14039 60.3553C5.93945 60.1074 5.74514 59.8529 5.55635 59.595C5.52875 59.5572 5.50226 59.5195 5.47355 59.4839C4.70575 58.4121 4.06823 57.2516 3.57462 56.0272C3.55916 55.9905 3.54591 55.9505 3.53156 55.916C3.37994 55.5233 3.24561 55.1269 3.12859 54.7268C3.0778 54.5589 3.02922 54.3933 2.98727 54.2188C2.97181 54.1677 2.95857 54.1177 2.94642 54.0676C2.31933 51.6035 2.24536 49.0438 2.24536 46.5018C2.24536 46.205 2.24536 45.9072 2.24536 45.6126C2.24536 44.5845 2.25751 43.5497 2.27517 42.516C2.27517 42.2482 2.28621 41.9814 2.29173 41.7124C2.30719 41.03 2.32927 40.3475 2.35797 39.6651C2.3646 39.475 2.37343 39.2861 2.38337 39.0971C2.38337 38.9882 2.38889 38.8793 2.39993 38.7703C2.42642 38.3747 2.4485 37.9823 2.475 37.5911Z" fill="white"/>
<path opacity="0.1" d="M24.7798 23.2617V37.1152H16.3549V23.2617H17.5561V18.5713H22.4867V23.2617H24.7798Z" fill="white"/>
<path opacity="0.1" d="M24.7798 37.5898H16.356V52.9649H24.7798V37.5898Z" fill="white"/>
<path opacity="0.1" d="M16.3549 53.4419H24.7798V66.2239C23.786 66.5114 22.7733 66.7279 21.7492 66.8719L21.4975 66.903C21.3739 66.9175 21.2513 66.9297 21.1299 66.9419C21.0084 66.9542 20.8826 66.963 20.76 66.9708H20.7214C20.6684 66.9708 20.611 66.9775 20.5591 66.9786H20.5028C20.4365 66.9786 20.3703 66.9853 20.304 66.9875C20.2102 66.9931 20.1164 66.9942 20.0203 66.9953C19.9795 66.9953 19.9408 66.9953 19.9 66.9953C19.805 66.9953 19.7112 66.9953 19.6162 66.9953H19.4076C19.3513 66.9953 19.2972 66.9953 19.2387 66.9953L19.0256 66.9875C18.9152 66.9875 18.7959 66.9753 18.6811 66.9675L18.4691 66.9519L18.2053 66.9275C18.0198 66.9108 17.8354 66.8897 17.6533 66.8641L17.4325 66.833L17.3221 66.8175C17.1377 66.7886 16.9555 66.7574 16.77 66.7219C16.6342 66.6985 16.4995 66.6696 16.3626 66.6418L16.3549 53.4419Z" fill="white"/>
<path opacity="0.1" d="M77.4432 21.6257H70.4966V37.1142H77.4432V21.6257Z" fill="white"/>
<path opacity="0.1" d="M77.4443 37.5898V52.9661H42.9643V46.3339H61.3299V50.2463H70.4967V37.5898H77.4443Z" fill="white"/>
<path opacity="0.1" d="M77.5536 69.9273H77.4432V80.0139C76.1993 79.908 74.9592 79.7639 73.7226 79.5816C68.1557 78.7611 62.7288 77.1668 57.5971 74.8444C56.1155 74.1731 54.6641 73.4403 53.2428 72.6459C50.8688 71.3218 48.5943 69.8243 46.4376 68.1656C45.8959 67.7476 45.3611 67.3201 44.8334 66.8829C44.468 66.5795 44.1048 66.2683 43.7371 65.9659C43.4821 65.7581 43.2248 65.5536 42.9643 65.358V53.4418H70.405C70.3862 53.3706 70.3675 53.2995 70.3476 53.2295C70.3686 53.2995 70.3885 53.3706 70.4072 53.4418H77.4432V69.9206C77.4808 69.9217 77.5172 69.925 77.5536 69.9273Z" fill="white"/>
<path opacity="0.1" d="M95.5604 20.472H91.0339V19.056H93.0631V14.8379C93.239 14.9024 93.4142 14.9687 93.5886 15.0368V19.056H95.5604V20.472Z" fill="white"/>
<path opacity="0.1" d="M106.466 37.1153H84.244C84.244 37.1153 84.244 37.1153 84.2518 37.1209L84.2418 37.1153H80.1194V21.6269H81.2875V33.0751H86.6254V26.2951H91.035V20.9478H95.5615V26.2995H99.971V33.0796H106.466V37.1153Z" fill="white"/>
<path opacity="0.1" d="M80.1194 37.5898V52.9661H106.466V37.5898H80.1194ZM113.618 71.0654L113.654 58.8947H106.466V53.4484H80.1194V80.1795C82.2794 80.2709 84.4428 80.2449 86.6001 80.1017H86.6376C87.668 80.0365 88.6937 79.9417 89.7145 79.8172H89.7377C95.184 79.1791 100.509 77.7485 105.547 75.5702" fill="white"/>
<path opacity="0.1" d="M116.796 53.4419H122.943C122.889 56.564 122.266 59.6306 120.903 62.4627C119.77 64.8157 118.194 66.873 116.333 68.6703V58.8893H116.796V53.4419Z" fill="white"/>
<path opacity="0.1" d="M122.946 52.966H116.796V40.1162H120.124C121.846 44.1676 122.94 48.6135 122.946 52.966Z" fill="white"/>
<path opacity="0.1" d="M77.4444 25.9316H73.7227V30.7877H77.4444V25.9316Z" fill="white"/>
<path opacity="0.1" d="M77.4444 35.9971H73.7227V37.1152H77.4444V35.9971Z" fill="white"/>
<path opacity="0.1" d="M77.4444 37.5898H73.7227V40.852H77.4444V37.5898Z" fill="white"/>
<path opacity="0.1" d="M77.4444 46.0627H73.7227V50.9188H77.4444V46.0627Z" fill="white"/>
<path opacity="0.1" d="M77.4444 56.1282H73.7227V60.9842H77.4444V56.1282Z" fill="white"/>
<path opacity="0.1" d="M77.4432 69.9206C77.4808 69.9206 77.5172 69.9206 77.5536 69.9273H77.4432V71.0555H73.7227V66.1938H77.4432V69.9206Z" fill="white"/>
<path opacity="0.1" d="M77.4432 76.2571V80.0083C76.1994 79.9024 74.9592 79.7582 73.7227 79.576V76.2571H77.4432Z" fill="white"/>
<path opacity="0.1" d="M58.9143 52.6094H42.9643V52.9662H58.9143V52.6094Z" fill="white"/>
<path opacity="0.1" d="M58.9143 53.4407H42.9643V54.8078H58.9143V53.4407Z" fill="white"/>
<path opacity="0.1" d="M58.9143 59.2893H42.9643V61.4878H58.9143V59.2893Z" fill="white"/>
<path opacity="0.1" d="M58.9132 65.9692V68.1677H46.4376C45.8959 67.7513 45.3608 67.3238 44.8323 66.8851C44.4669 66.5817 44.1048 66.2704 43.736 65.9692H58.9132Z" fill="white"/>
<path opacity="0.1" d="M58.9131 72.6481V74.8444H57.596C56.1159 74.1723 54.6648 73.4391 53.2428 72.6448L58.9131 72.6481Z" fill="white"/>
<path opacity="0.1" d="M89.7411 39.0803H86.6012V42.2414H89.7411V39.0803Z" fill="white"/>
<path opacity="0.1" d="M21.7569 24.3522H18.6171V27.5132H21.7569V24.3522Z" fill="white"/>
<path opacity="0.1" d="M21.7569 31.6946H18.6171V34.8556H21.7569V31.6946Z" fill="white"/>
<path opacity="0.1" d="M21.7569 39.0371H18.6171V42.1982H21.7569V39.0371Z" fill="white"/>
<path opacity="0.1" d="M21.7569 46.3784H18.6171V49.5395H21.7569V46.3784Z" fill="white"/>
<path opacity="0.1" d="M21.7569 53.7207H18.6171V56.8818H21.7569V53.7207Z" fill="white"/>
<path opacity="0.1" d="M21.7569 61.0632H18.6171V64.2243H21.7569V61.0632Z" fill="white"/>
<path opacity="0.1" d="M101.728 39.0803H98.5876V42.2414H101.728V39.0803Z" fill="white"/>
<path opacity="0.1" d="M89.7411 46.8774H86.6012V50.0385H89.7411V46.8774Z" fill="white"/>
<path opacity="0.1" d="M101.728 46.8774H98.5876V50.0385H101.728V46.8774Z" fill="white"/>
<path opacity="0.1" d="M89.7411 54.6733H86.6012V57.8344H89.7411V54.6733Z" fill="white"/>
<path opacity="0.1" d="M101.728 54.6733H98.5876V57.8344H101.728V54.6733Z" fill="white"/>
<path opacity="0.1" d="M89.7411 62.4703H86.6012V65.6314H89.7411V62.4703Z" fill="white"/>
<path opacity="0.1" d="M101.728 62.4703H98.5876V65.6314H101.728V62.4703Z" fill="white"/>
<path opacity="0.1" d="M89.7411 70.2673H86.6012V73.4284H89.7411V70.2673Z" fill="white"/>
<path opacity="0.1" d="M101.728 70.2673H98.5876V73.4284H101.728V70.2673Z" fill="white"/>
<path opacity="0.1" d="M86.6012 80.1018V78.0634H89.74V79.8117L86.6012 80.1018Z" fill="white"/>
<path opacity="0.1" d="M2.93427 33.1639V34.9723H13.6798V33.1639H2.93427ZM4.00518 34.8589H3.12858V33.2751H4.0118L4.00518 34.8589ZM5.07498 34.8589H4.19176V33.2751H5.07498V34.8589ZM6.14258 34.8589H5.25936V33.2751H6.14258V34.8589ZM7.21239 34.8589H6.33027V33.2751H7.21349L7.21239 34.8589ZM8.28109 34.8589H7.39787V33.2751H8.28109V34.8589ZM9.3509 34.8589H8.46768V33.2751H9.3509V34.8589ZM10.4207 34.8589H9.53748V33.2751H10.4207V34.8589ZM11.4894 34.8589H10.6062V33.2751H11.4894V34.8589ZM12.5581 34.8589H11.6749V33.2751H12.5581V34.8589ZM13.6268 34.8589H12.7436V33.2751H13.6268V34.8589Z" fill="white"/>
<path opacity="0.1" d="M2.93427 38.4258V40.2342H13.6798V38.4258H2.93427ZM4.00518 40.1197H3.12858V38.5403H4.0118L4.00518 40.1197ZM5.07498 40.1197H4.19176V38.5403H5.07498V40.1197ZM6.14258 40.1197H5.25936V38.5403H6.14258V40.1197ZM7.21239 40.1197H6.33027V38.5403H7.21349L7.21239 40.1197ZM8.28109 40.1197H7.39787V38.5403H8.28109V40.1197ZM9.3509 40.1197H8.46768V38.5403H9.3509V40.1197ZM10.4207 40.1197H9.53748V38.5403H10.4207V40.1197ZM11.4894 40.1197H10.6062V38.5403H11.4894V40.1197ZM12.5581 40.1197H11.6749V38.5403H12.5581V40.1197ZM13.6268 40.1197H12.7436V38.5403H13.6268V40.1197Z" fill="white"/>
<path opacity="0.1" d="M2.93427 43.6897V45.5014H13.6798V43.6897H2.93427ZM4.00518 45.3836H3.12858V43.8031H4.0118L4.00518 45.3836ZM5.07498 45.3836H4.19176V43.8031H5.07498V45.3836ZM6.14258 45.3836H5.25936V43.8031H6.14258V45.3836ZM7.21239 45.3836H6.33027V43.8031H7.21349L7.21239 45.3836ZM8.28109 45.3836H7.39787V43.8031H8.28109V45.3836ZM9.3509 45.3836H8.46768V43.8031H9.3509V45.3836ZM10.4207 45.3836H9.53748V43.8031H10.4207V45.3836ZM11.4894 45.3836H10.6062V43.8031H11.4894V45.3836ZM12.5581 45.3836H11.6749V43.8031H12.5581V45.3836ZM13.6268 45.3836H12.7436V43.8031H13.6268V45.3836Z" fill="white"/>
<path opacity="0.1" d="M2.93427 48.9536V50.7598H13.6798V48.9536H2.93427ZM4.00518 50.6475H3.12858V49.0659H4.0118L4.00518 50.6475ZM5.07498 50.6475H4.19176V49.0659H5.07498V50.6475ZM6.14258 50.6475H5.25936V49.0659H6.14258V50.6475ZM7.21239 50.6475H6.33027V49.0659H7.21349L7.21239 50.6475ZM8.28109 50.6475H7.39787V49.0659H8.28109V50.6475ZM9.3509 50.6475H8.46768V49.0659H9.3509V50.6475ZM10.4207 50.6475H9.53748V49.0659H10.4207V50.6475ZM11.4894 50.6475H10.6062V49.0659H11.4894V50.6475ZM12.5581 50.6475H11.6749V49.0659H12.5581V50.6475ZM13.6268 50.6475H12.7436V49.0659H13.6268V50.6475Z" fill="white"/>
<path opacity="0.1" d="M2.98065 54.2166C3.02371 54.3866 3.07229 54.5567 3.12307 54.7245V54.3299H4.0063V55.9105H3.53377C3.54812 55.9471 3.56248 55.9871 3.57683 56.0216H13.6798V54.2166H2.98065ZM5.07831 55.9105H4.19509V54.3299H5.07831V55.9105ZM6.14591 55.9105H5.26269V54.3299H6.14591V55.9105ZM7.21572 55.9105H6.33029V54.3299H7.21351L7.21572 55.9105ZM8.28442 55.9105H7.4012V54.3299H8.28442V55.9105ZM9.35423 55.9105H8.471V54.3299H9.35423V55.9105ZM10.424 55.9105H9.54081V54.3299H10.424V55.9105ZM11.4927 55.9105H10.6095V54.3299H11.4927V55.9105ZM12.5614 55.9105H11.6782V54.3299H12.5614V55.9105ZM13.6301 55.9105H12.7469V54.3299H13.6301V55.9105Z" fill="white"/>
<path opacity="0.1" d="M5.47577 59.4805C5.50337 59.516 5.52987 59.556 5.55857 59.5916H6.1426V60.3508C6.20553 60.4263 6.26736 60.5019 6.33139 60.573V59.5872H7.21462V61.1733H6.85691C6.89224 61.2099 6.92647 61.2488 6.96732 61.2844H13.6831V59.4805H5.47577ZM8.28111 61.1733H7.39789V59.5938H8.28111V61.1733ZM9.35092 61.1733H8.4677V59.5938H9.35092V61.1733ZM10.4207 61.1733H9.5375V59.5938H10.4207V61.1733ZM11.4894 61.1733H10.6062V59.5938H11.4894V61.1733ZM12.5581 61.1733H11.6749V59.5938H12.5581V61.1733ZM13.6268 61.1733H12.7436V59.5938H13.6268V61.1733Z" fill="white"/>
<path opacity="0.1" d="M11.3702 64.7434C11.4706 64.8012 11.5733 64.8546 11.6771 64.9124V64.8568H12.5603V65.3569L12.748 65.4448V64.8568H13.6312V65.8182C13.6482 65.8267 13.6659 65.8334 13.6842 65.8382V64.7434H11.3702Z" fill="white"/>
<path opacity="0.1" d="M70.3476 53.2284C70.3686 53.2995 70.3862 53.3707 70.4061 53.4407C70.3884 53.3707 70.3697 53.2995 70.3476 53.2284ZM17.5605 20.4686V20.9432H22.4922V20.4686H17.5605ZM70.3476 53.2284C70.3686 53.2995 70.3862 53.3707 70.4061 53.4407C70.3884 53.3707 70.3697 53.2995 70.3476 53.2284ZM70.3476 53.2284C70.3686 53.2995 70.3862 53.3707 70.4061 53.4407C70.3884 53.3707 70.3697 53.2995 70.3476 53.2284Z" fill="white"/>
<path d="M51.9091 42.2003C51.9091 42.2003 51.4741 42.1392 51.4741 41.5012C51.4741 40.8632 51.1628 39.6717 51.1628 39.6717C51.1628 39.6661 50.8934 37.5966 50.5214 37.2676C50.1493 36.9386 49.6713 35.0068 49.6713 35.0068C49.6713 35.0068 49.5896 33.9587 49.4229 33.733C49.2561 33.5074 49.0309 32.955 48.6986 32.167C48.3663 31.3789 46.9807 30.8332 46.9807 30.8332C46.9807 30.8332 44.4757 29.3705 43.7658 28.8937C43.7013 28.8545 43.641 28.8087 43.5858 28.757C43.4622 28.5936 42.9234 28.5902 42.9234 28.5902C42.8671 28.2323 42.813 27.8211 42.7954 27.4487C42.7954 27.4087 42.7953 27.3687 42.7898 27.3287C43.5814 26.8576 44.1776 26.1149 44.4691 25.2369C44.4823 25.1947 44.4934 25.1502 44.5055 25.108C44.5529 25.0922 44.5966 25.0667 44.6336 25.033C44.6707 24.9993 44.7004 24.9582 44.7208 24.9123C44.7848 24.769 44.7859 24.6011 44.8654 24.4677C44.9581 24.3099 45.1348 24.2254 45.2739 24.1065C45.625 23.8064 45.7155 23.3007 45.699 22.8405C45.6879 22.4682 45.6283 22.0925 45.6515 21.7224L45.6581 21.629C45.6647 21.5735 45.6725 21.5179 45.6824 21.4645C45.7365 21.1889 45.8546 20.9288 45.9209 20.6554C45.9871 20.3819 45.9937 20.0741 45.8392 19.8384C45.6128 19.4928 45.1414 19.4239 44.7274 19.3883C44.2582 19.3483 43.8387 19.4005 43.5384 19.0082C43.3978 18.8031 43.2397 18.6108 43.0658 18.4335C43.004 18.3757 42.4034 18.0067 42.4034 17.9823C41.8172 17.7089 41.1528 17.6576 40.5321 17.8378C40.2207 17.9289 39.9271 18.0778 39.6113 18.1523C38.9301 18.3146 38.1463 18.139 37.5678 18.5313C37.2454 18.7536 37.0522 19.1071 36.8711 19.4516C36.7239 19.7354 36.5745 20.0189 36.4229 20.3019C36.1789 20.7676 35.9305 21.2411 35.8278 21.7568C35.8062 21.8691 35.7929 21.9828 35.7881 22.097V22.1025C35.7881 22.1436 35.7881 22.1848 35.7881 22.2259V22.2781C35.7881 22.317 35.7881 22.3548 35.7947 22.3893C35.8013 22.4237 35.8002 22.4349 35.8035 22.4582C35.8068 22.4815 35.8123 22.5338 35.819 22.5693C35.8256 22.6049 35.8388 22.6672 35.8521 22.7161C35.8576 22.7372 35.8653 22.7572 35.872 22.7772C35.883 22.815 35.8963 22.8517 35.9106 22.8883C35.9183 22.9072 35.9261 22.9272 35.9349 22.9461C35.9515 22.985 35.9713 23.0228 35.9912 23.0573C36 23.0728 36.0067 23.0873 36.0155 23.1017C36.0463 23.1534 36.0802 23.2032 36.1171 23.2507C36.3533 23.5474 36.7011 23.7364 36.9583 24.0143C36.9583 24.0254 36.9583 24.0365 36.9583 24.0465C36.9583 24.0776 36.9583 24.1076 36.9583 24.1387C36.972 24.7585 37.1358 25.3654 37.4356 25.9068C37.7354 26.4483 38.162 26.9078 38.6784 27.2453C38.6784 27.2876 38.6839 27.3309 38.6861 27.3732C38.7077 27.7031 38.7036 28.0342 38.674 28.3635C38.629 28.3102 38.5728 28.2677 38.5093 28.2392C38.4459 28.2108 38.3769 28.197 38.3075 28.199C38.26 28.1967 38.2125 28.2008 38.1661 28.2112L38.1562 28.2034V28.2134C37.9133 28.2735 37.6141 28.528 37.3282 29.2516C37.3282 29.2516 36.4582 30.2386 35.7958 30.1974C35.1334 30.1563 33.4563 31.2244 33.4563 31.2244C33.4563 31.2244 31.8202 32.2937 31.4691 33.3829C31.2728 34.0006 31.0376 34.605 30.7647 35.1924L28.7421 39.3883L28.369 42.7171C28.369 42.7171 28.5754 44.1976 28.5346 44.4233C28.4937 44.6489 29.3836 46.684 29.3836 46.684C29.3836 46.684 32.3236 51.8846 33.5248 52.1514L33.6109 52.0903C33.6623 52.1173 33.7168 52.1378 33.7732 52.1514L34.0205 51.9758C34.0353 52.1715 34.0291 52.3683 34.0017 52.5626C33.8361 53.0761 34.0636 56.4272 34.3528 57.0841C34.6421 57.741 34.5394 66.3539 34.5394 66.3539L34.4985 67.1141C34.4985 67.1141 34.4985 67.1386 34.5085 67.1808L34.4985 67.3609L34.5284 67.3764C34.5593 67.6176 34.5492 67.8623 34.4985 68.1C34.3948 68.4335 34.3528 69.376 34.3528 69.376C34.3528 69.376 33.5259 74.6978 33.9178 75.767C34.3098 76.8362 34.6432 78.0078 34.6432 78.0078C34.6432 78.0078 35.0572 79.3415 34.663 79.5694C34.2689 79.7972 33.1483 80.1796 33.3791 80.7353C33.5888 81.2488 34.3848 82.6248 34.503 82.826L34.493 82.9316L34.3307 84.7022C34.357 84.936 34.42 85.1641 34.5173 85.378C34.6951 85.7637 35.0406 86.1638 35.6975 86.1204C35.8079 86.1127 35.936 86.0993 36.0596 86.0826C37.2619 85.9204 38.7424 85.3802 38.7424 85.3802C38.6656 85.331 38.5951 85.2724 38.5327 85.2057C38.4736 85.1481 38.4268 85.0789 38.3951 85.0025C38.3634 84.9261 38.3475 84.8439 38.3483 84.7611C38.366 84.4388 37.7665 82.9027 37.6174 82.5248C37.5943 82.4703 37.5821 82.4392 37.5821 82.4392C37.5821 82.4392 38.9489 81.001 38.7215 79.7261C38.7215 79.7261 37.2089 78.8369 37.7069 78.349C38.2048 77.861 39.0946 76.4595 39.0946 76.4595C39.0946 76.4595 39.1355 71.2188 39.0946 70.4363C39.052 69.8932 39.0776 69.3469 39.1708 68.8102C39.1874 68.7291 39.2072 68.6502 39.2282 68.5724C39.9168 68.6759 40.612 68.729 41.3082 68.7313C41.5621 68.7313 41.8205 68.7313 42.081 68.7158C42.081 68.7899 42.0844 68.8699 42.091 68.9559C42.1484 70.2541 42.2555 72.5304 42.3427 73.3762C42.4663 74.5888 43.1497 77.8566 43.1497 77.8566C43.1497 77.8566 41.8459 78.6991 43.3772 80.7753C43.3772 80.7753 43.3772 81.5278 43.2756 81.6367C43.1672 81.9928 43.0798 82.355 43.0139 82.7215C42.9499 83.1128 42.9234 83.5085 43.0272 83.7141C43.2756 84.2054 44.766 84.1653 44.766 84.1653L44.8025 84.1587C45.0839 84.1294 45.3682 84.1567 45.639 84.2389C45.9099 84.3211 46.1618 84.4567 46.3801 84.6377C46.9465 85.0957 49.0961 84.8945 50.2597 84.7489C50.7157 84.6911 51.0204 84.6377 51.0204 84.6377C51.0352 84.5858 51.0404 84.5315 51.0358 84.4777C51.0237 84.1898 50.7996 83.5585 49.2804 82.995C49.2804 82.995 47.8518 82.028 47.8717 81.1855H47.8419H47.6763C47.7966 81.1788 47.8739 81.1855 47.8739 81.1855C47.8739 81.1855 47.3142 79.1292 47.5427 78.9625C47.7712 78.7958 47.0867 76.5173 47.0867 76.5173C47.0867 76.5173 46.6948 72.6938 46.6738 72.4259C46.6747 72.196 46.7093 71.9676 46.7765 71.7479L46.6738 69.6516C46.6738 69.6516 46.6539 68.9547 46.6738 68.728C46.6705 68.5312 46.6546 68.3348 46.6263 68.14C46.6164 68.0622 46.6065 67.9811 46.5954 67.9011C47.1309 67.7643 47.4787 67.6376 47.4787 67.6376L47.4168 60.3408C47.8717 59.4516 47.9556 57.5009 47.9534 56.1171C47.9534 55.228 47.9136 54.57 47.9136 54.57L48.5352 53.5485C48.5352 53.5485 48.6787 52.3259 48.4513 52.058C48.3508 51.9369 48.3961 51.8113 48.4789 51.7079C48.5219 51.6736 48.5673 51.6424 48.6147 51.6145C48.6147 51.6145 48.6081 51.6045 48.6004 51.5901C48.6438 51.5536 48.6899 51.5205 48.7384 51.4912C48.7384 51.4912 48.5175 51.1466 48.7152 51.001C48.9006 51.1277 49.0663 51.2233 49.1921 51.3011C49.1833 51.3822 49.1744 51.4289 49.1744 51.4289L49.2274 51.3178C49.3489 51.3867 49.4229 51.4289 49.4229 51.4289C49.4229 51.4289 50.3966 49.4761 50.3756 49.1882C50.3547 48.9003 51.0381 47.6877 51.0381 47.6877C51.0381 47.6877 51.1209 47.0508 51.494 46.784C51.8672 46.5173 51.7833 44.5844 51.7833 44.5844C51.7833 44.5844 51.8871 43.5774 52.1355 43.1662C52.3839 42.7549 51.9091 42.2003 51.9091 42.2003ZM33.2775 41.3434L33.2963 41.8091C33.1859 41.6301 33.1064 41.5012 33.1064 41.5012L33.2775 41.3434Z" fill="url(#paint0_linear_113_4453)"/>
<path d="M49.4759 50.5852L49.2374 51.6078C49.2374 51.6078 47.3274 50.6263 46.983 49.3793C46.6385 48.1322 47.5593 47.6587 47.5593 47.6587L49.339 48.4178L49.4759 50.5852Z" fill="white"/>
<path opacity="0.1" d="M49.4759 50.5852L49.2374 51.6078C49.2374 51.6078 47.3274 50.6263 46.983 49.3793C46.6385 48.1322 47.5593 47.6587 47.5593 47.6587L49.339 48.4178L49.4759 50.5852Z" fill="black"/>
<path d="M38.7569 85.3869C38.7569 85.3869 36.9904 86.0404 35.776 86.1227C35.1312 86.166 34.7923 85.7681 34.6178 85.3847C34.5225 85.1715 34.4611 84.9446 34.4357 84.7122L34.5935 82.9505L34.6775 82.0124L37.2576 81.3378L37.623 82.4626L37.6572 82.5482C37.8041 82.9239 38.3925 84.4521 38.3749 84.7711C38.3741 84.8528 38.3898 84.9338 38.4209 85.0092C38.452 85.0847 38.4979 85.153 38.5559 85.2102C38.6152 85.2774 38.6827 85.3368 38.7569 85.3869Z" fill="white"/>
<path d="M50.8228 84.491C50.8272 84.5445 50.8219 84.5984 50.8073 84.65C50.8073 84.65 47.0293 85.2846 46.2565 84.65C46.0386 84.4646 45.7846 84.3271 45.5108 84.2463C45.237 84.1655 44.9495 84.1433 44.6667 84.1809C44.6667 84.1809 43.2049 84.221 42.9609 83.7363C42.8594 83.5329 42.8859 83.1384 42.9488 82.7494C43.013 82.3848 43.0985 82.0245 43.2049 81.6701L43.2634 81.6234L43.6112 81.3422L47.6829 81.2211H47.7138C47.6939 82.0591 49.096 83.0206 49.096 83.0206C50.5854 83.5763 50.8051 84.2043 50.8228 84.491Z" fill="white"/>
<path opacity="0.1" d="M50.8228 84.491C50.8267 84.5446 50.821 84.5984 50.8062 84.65C50.8062 84.65 47.0293 85.2846 46.2565 84.65C46.0387 84.4647 45.7849 84.3273 45.5114 84.2465C45.2378 84.1657 44.9505 84.1434 44.6678 84.1809C44.6678 84.1809 43.205 84.2209 42.9621 83.7363C42.8605 83.5318 42.8859 83.1383 42.9488 82.7493C43.5119 82.806 44.4006 82.9472 44.7495 83.284C45.2772 83.7963 46.1715 84.3076 46.7202 84.3476C47.1497 84.3754 49.7188 84.4577 50.8228 84.491Z" fill="black"/>
<path opacity="0.1" d="M38.7568 85.3869C38.7568 85.3869 36.9904 86.0404 35.7759 86.1227C35.1312 86.166 34.7922 85.7681 34.6189 85.3835C35.0682 85.5358 35.692 85.6959 36.0199 85.5491C36.4085 85.3758 37.7864 85.2635 38.5592 85.2157C38.618 85.2805 38.6844 85.338 38.7568 85.3869Z" fill="black"/>
<path d="M41.3778 32.7194C39.9205 32.1492 38.0458 30.2653 38.5139 29.385C38.6179 29.1628 38.6797 28.9231 38.6961 28.6781C38.7262 28.3455 38.7306 28.011 38.7093 27.6777C38.6765 27.1319 38.6113 26.5885 38.5139 26.0505C38.5139 26.0505 43.0636 26.1539 42.7987 26.8286C42.7214 27.0264 42.7092 27.3699 42.7302 27.7544C42.7512 28.139 42.8064 28.5736 42.8638 28.9415C42.9433 29.4461 43.0228 29.8307 43.0228 29.8307C43.0228 29.8307 42.7446 30.223 42.5812 30.2442C42.4178 30.2653 43.4688 33.5319 41.3778 32.7194Z" fill="#CF6F80"/>
<path opacity="0.1" d="M37.6539 82.5482L37.6197 82.586C36.2595 80.9299 34.6145 82.9939 34.6145 82.9939L34.5902 82.9505L34.6741 82.0124L37.2542 81.3378L37.6197 82.4626L37.6539 82.5482Z" fill="black"/>
<path opacity="0.1" d="M47.7149 81.3378C47.7149 81.3378 46.7213 81.3166 46.1914 81.7879C45.6614 82.2592 43.1001 81.8902 43.2105 81.7879C43.2432 81.7372 43.2629 81.6792 43.2679 81.619L43.6157 81.3378L47.6873 81.2166C47.7028 81.2911 47.7149 81.3378 47.7149 81.3378Z" fill="black"/>
<path d="M39.3464 68.3324C39.2724 68.5166 39.2162 68.7075 39.1786 68.9026C39.0865 69.4367 39.0609 69.9804 39.1024 70.5209C39.1433 71.2989 39.1024 76.5129 39.1024 76.5129C39.1024 76.5129 38.2291 77.9033 37.7422 78.3935C37.2554 78.8837 38.7359 79.764 38.7359 79.764C38.9567 81.031 37.6186 82.4626 37.6186 82.4626C36.2584 80.8065 34.6134 82.8717 34.6134 82.8717C34.6134 82.8717 33.7191 81.3156 33.4961 80.7598C33.2731 80.2041 34.3694 79.8195 34.7547 79.5939C35.14 79.3683 34.736 78.0378 34.736 78.0378C34.736 78.0378 34.4103 76.8719 34.0239 75.8082C33.6374 74.7445 34.45 69.4494 34.45 69.4494C34.45 69.4494 34.492 68.5091 34.5924 68.1812C34.6431 67.9446 34.6532 67.701 34.6222 67.461C34.6156 67.3798 34.6079 67.312 34.6024 67.2665C34.5968 67.2209 34.5924 67.1998 34.5924 67.1998L34.6079 67.1731L35.1599 66.1372C35.1599 66.1372 39.6114 67.6799 39.3464 68.3324Z" fill="white"/>
<path d="M47.715 81.2154C47.715 81.2154 46.7213 81.1943 46.1914 81.66C45.6615 82.1257 43.1001 81.7623 43.2105 81.66C43.3209 81.5578 43.3121 80.8009 43.3121 80.8009C41.8095 78.7357 43.0913 77.8977 43.0913 77.8977C43.0913 77.8977 42.42 74.6466 42.2986 73.4406C42.2136 72.5981 42.1087 70.334 42.0524 69.0414C42.0281 68.4856 42.0137 68.1033 42.0137 68.1033L43.2414 67.8543L43.3993 67.8221L46.3603 67.2241C46.3603 67.2241 46.442 67.7799 46.4972 68.2345C46.5247 68.4286 46.5402 68.6242 46.5436 68.8202C46.5237 69.0425 46.5436 69.7383 46.5436 69.7383L46.644 71.8245C46.5784 72.0434 46.5446 72.2706 46.5436 72.4992C46.5635 72.7649 46.9488 76.5683 46.9488 76.5683C46.9488 76.5683 47.6189 78.838 47.3904 79.0014C47.1618 79.1648 47.715 81.2154 47.715 81.2154Z" fill="white"/>
<path opacity="0.1" d="M42.7987 26.8286C42.7214 27.0264 42.7092 27.3699 42.7302 27.7544C42.1208 28.1239 41.4202 28.3128 40.709 28.2994C39.9977 28.286 39.3046 28.071 38.7093 27.6789C38.6766 27.1326 38.6113 26.5889 38.5139 26.0505C38.5139 26.0505 43.0636 26.1517 42.7987 26.8286Z" fill="black"/>
<path d="M44.5574 24.3722C44.5583 24.7727 44.4957 25.1708 44.3719 25.5514C44.0953 26.4044 43.5281 27.1314 42.7706 27.604C42.013 28.0766 41.1139 28.2644 40.2322 28.1342C39.3504 28.004 38.5427 27.5641 37.9519 26.8924C37.3611 26.2206 37.0252 25.3603 37.0036 24.4633C37.0036 24.4322 37.0036 24.4033 37.0036 24.3722C36.995 23.8673 37.0864 23.3657 37.2724 22.8968C37.4584 22.4278 37.7352 22.0009 38.0869 21.6408C38.4385 21.2807 38.8578 20.9947 39.3204 20.7994C39.7829 20.6042 40.2795 20.5037 40.7811 20.5037C41.2826 20.5037 41.7792 20.6042 42.2417 20.7994C42.7043 20.9947 43.1236 21.2807 43.4752 21.6408C43.8269 22.0009 44.1037 22.4278 44.2897 22.8968C44.4757 23.3657 44.5671 23.8673 44.5585 24.3722H44.5574Z" fill="#CF6F80"/>
<path opacity="0.1" d="M41.3778 32.7193C39.9205 32.1491 38.0458 30.2652 38.5139 29.3849C38.6179 29.1627 38.6797 28.923 38.6961 28.678L40.6911 30.3285L41.9254 31.3478L42.8638 28.9425C42.9433 29.4471 43.0228 29.8317 43.0228 29.8317C43.0228 29.8317 42.7446 30.224 42.5812 30.2452C42.4178 30.2663 43.4688 33.5318 41.3778 32.7193Z" fill="black"/>
<path d="M46.537 40.0139L44.871 68.19L42.6982 68.3333L37.0721 51.9957L37.9951 32.5992L38.1894 28.5012L40.6911 30.5697L41.9265 31.5889L42.8925 29.1136L44.6888 30.6897L46.537 40.0139Z" fill="white"/>
<path opacity="0.1" d="M39.3464 68.3323C39.2724 68.5165 39.2162 68.7074 39.1786 68.9025C37.5976 68.6567 36.0621 68.1738 34.6233 67.4698L34.5935 67.4542L34.6034 67.2753L34.609 67.1819L35.161 66.146C35.161 66.146 39.6113 67.6798 39.3464 68.3323Z" fill="black"/>
<path opacity="0.1" d="M43.2668 68.9069C42.8626 68.9761 42.455 69.0228 42.0457 69.0469C42.0214 68.4912 42.0071 68.1088 42.0071 68.1088L43.2348 67.8599L43.2668 68.9069Z" fill="black"/>
<path opacity="0.1" d="M46.4906 68.2401C45.7056 68.4457 44.4934 68.6769 43.4081 68.5324L43.3926 67.8277L46.3537 67.2297C46.3537 67.2297 46.4354 67.7799 46.4906 68.2401Z" fill="black"/>
<path opacity="0.1" d="M43.3882 68.6612C38.8617 69.4393 34.7161 67.2085 34.7161 67.2085L34.7558 66.4527C34.7558 66.4527 34.8585 57.8843 34.5737 57.2274C34.2888 56.5706 34.0669 53.2395 34.2281 52.7282C34.3893 52.2169 33.6396 44.5499 33.6396 44.5499L33.5182 41.4378L29.0734 39.6249L31.0606 35.4547C31.329 34.87 31.5599 34.2685 31.7517 33.6541C32.0973 32.5715 33.7015 31.5078 33.7015 31.5078C33.7015 31.5078 35.3465 30.4452 35.9968 30.4852C36.647 30.5252 37.4993 29.5449 37.4993 29.5449C38.1286 27.9299 38.6983 28.6613 38.6983 28.6613C38.6983 28.738 38.6983 28.6613 38.6674 28.9003C38.4466 30.6731 42.2378 36.2749 42.2919 36.3738L42.653 45.2279L43.0184 56.4327L43.3882 68.6612Z" fill="black"/>
<path d="M43.2668 68.6613C38.7403 69.4394 34.5935 67.2086 34.5935 67.2086L34.6344 66.4528C34.6344 66.4528 34.7371 57.8844 34.4511 57.2275C34.1652 56.5706 33.9444 53.2395 34.1066 52.7282C34.2689 52.217 33.5182 44.55 33.5182 44.55L33.3957 41.4378L28.9486 39.6183L30.9359 35.4481C31.2037 34.8631 31.4345 34.2617 31.627 33.6475C31.9715 32.5649 33.5767 31.5012 33.5767 31.5012C33.5767 31.5012 35.2217 30.4386 35.8709 30.4786C36.5201 30.5186 37.3735 29.5383 37.3735 29.5383C38.0039 27.9233 38.6983 28.6547 38.6983 28.6547C38.6983 28.7314 38.6321 28.7658 38.6674 28.8937C39.1532 30.6131 42.1164 36.2683 42.1705 36.3673L42.5359 45.2213L42.9014 56.4261L43.2668 68.6613Z" fill="white"/>
<path opacity="0.1" d="M42.0468 36.6196C41.5599 36.415 38.9809 33.4507 38.9809 33.4507V32.7761C38.8871 32.5538 38.3295 32.6894 37.8769 32.845L38.0712 28.7469L38.292 28.9315C38.7756 30.6498 41.9905 36.5206 42.0468 36.6196Z" fill="black"/>
<path d="M42.1694 36.3738C41.6814 36.1693 39.1024 33.205 39.1024 33.205V32.5303C39.0085 32.308 38.451 32.4436 37.9984 32.5993L38.1938 28.5012L38.4146 28.6857C38.8992 30.4041 42.1153 36.276 42.1694 36.3738Z" fill="white"/>
<path opacity="0.1" d="M34.7161 51.1577C34.7768 51.1577 37.8637 50.8309 37.8637 50.8309C37.8637 50.8309 39.7328 54.5311 39.6102 55.4314C39.4877 56.3316 39.2658 57.1286 38.5139 56.9874C37.7621 56.8463 34.4677 57.0986 34.4677 57.0986L34.7161 51.1577Z" fill="black"/>
<path d="M34.5935 50.9121C34.6542 50.9121 37.7411 50.5853 37.7411 50.5853C37.7411 50.5853 39.6091 54.2866 39.4877 55.1857C39.3662 56.0849 39.1421 56.883 38.3914 56.7418C37.6406 56.6007 34.3451 56.853 34.3451 56.853L34.5935 50.9121Z" fill="white"/>
<path d="M36.9197 49.1748C36.9197 49.1748 39.7526 50.7075 39.8134 51.1755C39.8741 51.6434 38.3715 50.971 38.0469 50.8898C37.8333 50.838 37.6158 50.8038 37.3966 50.7876L35.2316 50.8465L36.9197 49.1748Z" fill="#CF6F80"/>
<path opacity="0.1" d="M41.2563 36.8106C41.421 36.8106 41.5544 36.6763 41.5544 36.5106C41.5544 36.3448 41.421 36.2104 41.2563 36.2104C41.0917 36.2104 40.9583 36.3448 40.9583 36.5106C40.9583 36.6763 41.0917 36.8106 41.2563 36.8106Z" fill="black"/>
<path d="M41.2563 36.6885C41.421 36.6885 41.5544 36.5541 41.5544 36.3884C41.5544 36.2226 41.421 36.0883 41.2563 36.0883C41.0917 36.0883 40.9583 36.2226 40.9583 36.3884C40.9583 36.5541 41.0917 36.6885 41.2563 36.6885Z" fill="#3F3D56"/>
<path opacity="0.1" d="M41.805 49.8017C41.9697 49.8017 42.1031 49.6674 42.1031 49.5016C42.1031 49.3359 41.9697 49.2015 41.805 49.2015C41.6404 49.2015 41.507 49.3359 41.507 49.5016C41.507 49.6674 41.6404 49.8017 41.805 49.8017Z" fill="black"/>
<path d="M41.805 49.6783C41.9697 49.6783 42.1031 49.544 42.1031 49.3782C42.1031 49.2125 41.9697 49.0781 41.805 49.0781C41.6404 49.0781 41.507 49.2125 41.507 49.3782C41.507 49.544 41.6404 49.6783 41.805 49.6783Z" fill="#3F3D56"/>
<path opacity="0.1" d="M41.5533 43.3063C41.718 43.3063 41.8514 43.1719 41.8514 43.0062C41.8514 42.8404 41.718 42.7061 41.5533 42.7061C41.3887 42.7061 41.2552 42.8404 41.2552 43.0062C41.2552 43.1719 41.3887 43.3063 41.5533 43.3063Z" fill="black"/>
<path d="M41.5533 43.1839C41.718 43.1839 41.8514 43.0496 41.8514 42.8838C41.8514 42.7181 41.718 42.5837 41.5533 42.5837C41.3887 42.5837 41.2552 42.7181 41.2552 42.8838C41.2552 43.0496 41.3887 43.1839 41.5533 43.1839Z" fill="#3F3D56"/>
<path d="M48.4248 50.7253C48.4248 50.7253 48.628 51.0321 48.4248 51.1754C48.2217 51.3188 48.4447 51.6656 48.4447 51.6656C48.4447 51.6656 47.938 51.9646 48.161 52.2336C48.384 52.5026 48.2427 53.7174 48.2427 53.7174L47.6333 54.7333C47.6333 54.7333 47.6697 55.388 47.6719 56.2727C47.6719 57.6532 47.5913 59.5938 47.1453 60.4785L47.2071 67.7376C47.2071 67.7376 45.073 68.5223 43.2867 68.2833L43.0217 56.635C43.0217 56.635 43.4081 50.0295 43.5505 48.7624C43.6339 48.1046 43.6678 47.4414 43.6521 46.7784C43.6521 46.7784 43.5914 44.7956 43.3871 43.8752C43.3871 43.8752 43.1663 39.8884 43.1443 38.7847C43.1343 38.2567 43.1619 36.7162 43.1928 35.2513C43.2271 33.6496 43.2657 32.1391 43.2657 32.1391L42.8627 28.9292C42.8627 28.9292 43.2657 28.888 43.3871 29.0514C43.4415 29.1026 43.5007 29.1484 43.5638 29.1881C44.2593 29.6616 46.7169 31.1177 46.7169 31.1177C46.7169 31.1177 48.0771 31.6623 48.4028 32.4426C48.7285 33.2228 48.9548 33.7763 49.1127 33.9986C49.2705 34.2209 49.3567 35.2657 49.3567 35.2657C49.3567 35.2657 49.8248 37.1886 50.1902 37.5142C50.5556 37.8399 50.8228 39.9117 50.8228 39.9117L47.5935 42.4681C47.5935 42.4681 47.3098 46.7206 47.2491 46.8851C47.1883 47.0496 48.4248 50.7253 48.4248 50.7253Z" fill="white"/>
<path d="M48.5474 50.7253C48.5474 50.7253 48.7494 51.0321 48.5474 51.1754C48.3453 51.3188 48.5661 51.6656 48.5661 51.6656C48.5661 51.6656 48.0627 51.9679 48.2835 52.2369C48.5043 52.5059 48.3652 53.7207 48.3652 53.7207L47.7558 54.7366C47.7558 54.7366 47.7922 55.3913 47.7955 56.276C47.7955 57.6565 47.7149 59.5971 47.2689 60.4819L47.3296 67.741C47.3296 67.741 45.1922 68.5257 43.4081 68.2867L43.1442 56.6384C43.1442 56.6384 43.5306 50.0328 43.6731 48.7658C43.7565 48.108 43.7901 47.4447 43.7735 46.7818C43.7735 46.7818 43.7128 44.7989 43.5097 43.8786C43.5097 43.8786 43.2889 39.8917 43.2657 38.788C43.2557 38.26 43.2844 36.7195 43.3143 35.2546C43.3485 33.653 43.3871 32.1425 43.3871 32.1425L42.855 28.8892C42.855 28.8892 43.3871 28.8892 43.5097 29.0548C43.5636 29.1065 43.6228 29.1524 43.6863 29.1915C44.3819 29.665 46.8405 31.121 46.8405 31.121C46.8405 31.121 48.1996 31.6656 48.5253 32.4459C48.851 33.2262 49.0773 33.7797 49.2363 34.002C49.3953 34.2243 49.4792 35.2691 49.4792 35.2691C49.4792 35.2691 49.9473 37.1919 50.3127 37.5176C50.6782 37.8432 50.942 39.9106 50.942 39.9106L47.7127 42.467C47.7127 42.467 47.429 46.7195 47.3672 46.884C47.3053 47.0485 48.5474 50.7253 48.5474 50.7253Z" fill="white"/>
<path opacity="0.1" d="M44.68 33.0861L44.9714 33.9419L43.4368 35.498C43.471 33.8975 43.5097 32.3859 43.5097 32.3859L42.9775 29.1326C42.9775 29.1326 43.5097 29.1326 43.6322 29.2982C43.686 29.3498 43.7452 29.3953 43.8089 29.4338L45.1138 33.2239L44.68 33.0861Z" fill="black"/>
<path d="M44.5574 32.8405L44.85 33.6963L43.3154 35.2524C43.3496 33.6508 43.3882 32.1403 43.3882 32.1403L42.855 28.887C42.855 28.887 43.3882 28.887 43.5097 29.0526C43.5638 29.104 43.623 29.1498 43.6863 29.1893L44.9924 32.9783L44.5574 32.8405Z" fill="white"/>
<path opacity="0.1" d="M44.5574 24.3722C44.5583 24.7727 44.4957 25.1708 44.3719 25.5514C44.3511 25.5547 44.3298 25.5538 44.3093 25.5486C44.2888 25.5434 44.2696 25.5342 44.2527 25.5214C44.224 24.5211 43.7349 23.5819 43.1332 22.7827C42.9643 22.5415 42.7595 22.3278 42.526 22.1492C42.2899 21.9707 41.9963 21.8871 41.7024 21.9147C41.3712 21.9603 41.0786 22.187 40.7441 22.2159C40.3025 22.2526 39.9072 21.9447 39.4689 21.9291C39.2907 21.9308 39.115 21.9708 38.9533 22.0463C38.7917 22.1218 38.6479 22.2312 38.5316 22.3671C38.3013 22.6413 38.1303 22.9608 38.0293 23.3051C37.8557 23.8274 37.7611 24.3729 37.7488 24.9235C37.7433 25.2347 37.7135 25.6248 37.4265 25.7382C37.4481 25.5093 37.4222 25.2784 37.3506 25.0601C37.2789 24.8418 37.163 24.6408 37.0102 24.47L37.0036 24.4633C37.0036 24.4322 37.0036 24.4033 37.0036 24.3722C36.995 23.8673 37.0864 23.3657 37.2724 22.8968C37.4584 22.4278 37.7352 22.0009 38.0869 21.6408C38.4385 21.2807 38.8578 20.9947 39.3204 20.7994C39.7829 20.6042 40.2795 20.5037 40.7811 20.5037C41.2826 20.5037 41.7792 20.6042 42.2417 20.7994C42.7043 20.9947 43.1236 21.2807 43.4752 21.6408C43.8269 22.0009 44.1037 22.4278 44.2897 22.8968C44.4757 23.3657 44.5671 23.8673 44.5585 24.3722H44.5574Z" fill="black"/>
<path d="M42.3449 18.3335C41.7712 18.0619 41.1187 18.0105 40.51 18.1891C40.2042 18.2802 39.916 18.428 39.6058 18.5025C38.9434 18.6637 38.1706 18.4892 37.602 18.8793C37.2862 19.1016 37.0963 19.4528 36.9197 19.794L36.4781 20.641C36.2374 21.1045 35.9945 21.5757 35.8941 22.0859C35.7936 22.5961 35.8543 23.1674 36.1756 23.5775C36.4096 23.8765 36.7552 24.0643 37.0091 24.3455C37.1613 24.5166 37.2766 24.7174 37.3481 24.9355C37.4195 25.1535 37.4454 25.384 37.4242 25.6126C37.7124 25.5015 37.74 25.1102 37.7466 24.799C37.7589 24.2485 37.8535 23.7029 38.027 23.1807C38.1278 22.8362 38.2989 22.5167 38.5294 22.2426C38.6458 22.1068 38.7896 21.9976 38.9512 21.9221C39.1128 21.8465 39.2885 21.8065 39.4667 21.8047C39.9083 21.8203 40.3047 22.127 40.7419 22.0903C41.0731 22.0626 41.3667 21.8347 41.7002 21.7902C41.9941 21.7622 42.2879 21.8459 42.5238 22.0248C42.7572 22.2031 42.9617 22.4168 43.1299 22.6583C43.7327 23.4575 44.2218 24.3944 44.2505 25.397C44.3752 25.4893 44.5552 25.3692 44.617 25.2269C44.6788 25.0847 44.681 24.918 44.7594 24.7824C44.85 24.6256 45.0233 24.5423 45.1591 24.4245C45.5036 24.1255 45.5897 23.622 45.5764 23.1651C45.5632 22.7083 45.4748 22.2448 45.561 21.7958C45.6129 21.5202 45.7299 21.2623 45.7939 20.99C45.8579 20.7177 45.8657 20.412 45.7144 20.1775C45.4936 19.8329 45.0288 19.7651 44.6236 19.7329C44.1633 19.6929 43.7515 19.744 43.4578 19.3539C43.3199 19.1503 43.1648 18.9591 42.9941 18.7826C42.9356 18.7248 42.3449 18.358 42.3449 18.3335Z" fill="#512E4E"/>
<path opacity="0.1" d="M30.3452 41.7724L29.1915 39.625L28.826 42.9383C28.826 42.9383 29.0292 44.4099 28.9883 44.6356C28.9475 44.8612 29.8208 46.8841 29.8208 46.8841C29.8208 46.8841 32.7056 52.0569 33.8836 52.3237L37.8637 49.4605L36.8082 48.1112C36.8082 48.1112 36.4428 47.9678 36.3511 48.1112C36.3511 48.1112 34.3915 44.7167 34.1883 44.4711C33.9852 44.2254 34.0249 43.7353 34.0249 43.7353C34.0249 43.7353 33.7202 43.4085 33.8218 43.1017C33.9234 42.7949 33.2333 41.7313 33.2333 41.7313L33.8626 41.1388L30.3452 41.7724Z" fill="black"/>
<path d="M29.2522 39.3805L28.9475 39.625L28.582 42.9383C28.582 42.9383 28.7852 44.4099 28.7443 44.6356C28.7035 44.8612 29.5779 46.8841 29.5779 46.8841C29.5779 46.8841 32.4616 52.0569 33.6396 52.3237L37.6207 49.4605L36.5642 48.1112C36.5642 48.1112 36.1988 47.9678 36.1071 48.1112C36.1071 48.1112 34.1475 44.7167 33.9443 44.4711C33.7412 44.2254 33.782 43.7353 33.782 43.7353C33.782 43.7353 33.4773 43.4085 33.5789 43.1017C33.6805 42.795 32.9893 41.7313 32.9893 41.7313L33.6186 41.1389L29.2522 39.3805Z" fill="white"/>
<path opacity="0.1" d="M48.161 52.3604C48.3818 52.6305 48.2427 53.8431 48.2427 53.8431L47.6332 54.859C47.6332 54.859 47.6697 55.5148 47.6719 56.3984L46.6473 56.7207C46.5547 56.7499 46.4566 56.7563 46.361 56.7394C46.2655 56.7226 46.1753 56.683 46.0981 56.6239C46.0208 56.5648 45.9587 56.488 45.917 56.3999C45.8752 56.3117 45.855 56.2148 45.858 56.1172L46.0346 50.3809L48.4248 51.3012C48.2217 51.4434 48.4447 51.7924 48.4447 51.7924C48.4447 51.7924 47.938 52.0903 48.161 52.3604Z" fill="black"/>
<path d="M48.2835 52.237C48.5043 52.5071 48.3652 53.7208 48.3652 53.7208L47.7558 54.7367C47.7558 54.7367 47.7922 55.3914 47.7955 56.2761L46.7522 56.604C46.6615 56.6324 46.5654 56.6385 46.4719 56.6219C46.3784 56.6054 46.2902 56.5665 46.2146 56.5087C46.139 56.4508 46.0782 56.3756 46.0373 56.2894C45.9964 56.2031 45.9765 56.1082 45.9794 56.0127L46.1571 50.2585L48.5485 51.1789C48.3442 51.3211 48.5673 51.669 48.5673 51.669C48.5673 51.669 48.0627 51.968 48.2835 52.237Z" fill="white"/>
<path d="M49.0751 49.5027C49.0751 49.5027 48.9128 50.5463 48.5065 50.6075C48.1002 50.6686 47.9181 52.2958 47.5129 52.238C47.1077 52.1802 47.376 50.7253 47.3903 50.443C47.4047 50.1607 46.9487 48.9914 47.2899 48.7257C47.631 48.4601 48.7108 48.7257 48.7108 48.7257L49.0751 49.5027Z" fill="#CF6F80"/>
<path opacity="0.1" d="M49.9396 41.4656L50.7058 39.9095C50.7058 39.9095 51.0105 41.0955 51.0105 41.729C51.0105 42.3626 51.4366 42.4248 51.4366 42.4248C51.4366 42.4248 51.9036 42.9806 51.6574 43.3851C51.4112 43.7897 51.3119 44.7967 51.3119 44.7967C51.3119 44.7967 51.3925 46.7185 51.027 46.9841C50.6616 47.2498 50.5854 47.8844 50.5854 47.8844C50.5854 47.8844 49.9142 49.0904 49.9352 49.3771C49.9561 49.6639 49.0011 51.6056 49.0011 51.6056C49.0011 51.6056 49.4681 49.1926 46.7467 48.1501C46.7467 48.1501 46.7257 47.3309 46.9289 47.1064C47.132 46.8819 47.4489 46.7796 47.2502 45.6448C47.0514 44.51 47.1927 43.154 47.1927 42.8816C47.1927 42.6093 47.8022 40.911 47.8022 40.911L49.9396 41.4656Z" fill="black"/>
<path d="M50.2708 39.6873L50.9398 39.9096C50.9398 39.9096 51.2456 41.0955 51.2456 41.729C51.2456 42.3626 51.6718 42.4248 51.6718 42.4248C51.6718 42.4248 52.1388 42.9806 51.8926 43.3851C51.6464 43.7897 51.5482 44.7967 51.5482 44.7967C51.5482 44.7967 51.6287 46.7185 51.2633 46.9841C50.8979 47.2498 50.8162 47.8844 50.8162 47.8844C50.8162 47.8844 50.146 49.0904 50.167 49.3771C50.188 49.6639 49.2319 51.6057 49.2319 51.6057C49.2319 51.6057 49.7 49.1926 46.9775 48.1501C46.9775 48.1501 46.9576 47.3309 47.1607 47.1064C47.3639 46.8819 47.6807 46.7796 47.482 45.6448C47.2833 44.51 47.4246 43.154 47.4246 42.8816C47.4246 42.6093 48.034 40.911 48.034 40.911L50.2708 39.6873Z" fill="white"/>
<path opacity="0.1" d="M35.4933 80.0195C35.4933 80.0195 36.5598 79.3448 37.2597 79.835C37.9597 80.3252 35.4933 80.0195 35.4933 80.0195Z" fill="black"/>
<path opacity="0.1" d="M43.7802 77.9332C43.7802 77.9332 44.7241 77.811 45.5168 78.6702C46.3095 79.5293 43.7802 77.9332 43.7802 77.9332Z" fill="black"/>
<path d="M45.1613 24.1809C45.0255 24.2987 44.8511 24.3832 44.7605 24.5399C44.6832 24.6744 44.681 24.84 44.6192 24.9845C44.5574 25.129 44.3774 25.2468 44.2527 25.1556C44.224 24.1553 43.7338 23.2161 43.1321 22.4158C42.9639 22.1743 42.7594 21.9606 42.526 21.7823C42.2897 21.6034 41.9956 21.5198 41.7013 21.5478C41.37 21.5933 41.0786 21.8201 40.7441 21.8479C40.3024 21.8857 39.9061 21.5778 39.4678 21.5622C39.2897 21.564 39.114 21.6041 38.9525 21.6798C38.7911 21.7555 38.6475 21.8651 38.5316 22.0013C38.3011 22.2749 38.13 22.5941 38.0292 22.9382C37.8558 23.4605 37.7612 24.006 37.7488 24.5565C37.7422 24.8666 37.7135 25.2534 37.4286 25.369C37.4353 25.4511 37.4353 25.5337 37.4286 25.6158C37.7157 25.5046 37.7444 25.1134 37.751 24.8022C37.7633 24.2516 37.8579 23.7061 38.0315 23.1839C38.1322 22.8394 38.3033 22.5199 38.5338 22.2458C38.65 22.11 38.7936 22.0008 38.955 21.9252C39.1165 21.8497 39.292 21.8097 39.47 21.8079C39.9116 21.8234 40.3091 22.1302 40.7463 22.0935C41.0775 22.0657 41.3711 21.8379 41.7035 21.7934C41.9978 21.7654 42.2919 21.8491 42.5282 22.0279C42.7616 22.2062 42.9661 22.42 43.1343 22.6615C43.736 23.4606 44.2262 24.3976 44.2549 25.4002C44.3796 25.4924 44.5596 25.3724 44.6214 25.2301C44.6832 25.0878 44.6855 24.9211 44.7627 24.7855C44.8533 24.6288 45.0277 24.5454 45.1635 24.4276C45.508 24.1286 45.5941 23.6251 45.5808 23.1683C45.5808 23.1539 45.5808 23.1394 45.5808 23.1261C45.5598 23.5218 45.455 23.9252 45.1613 24.1809Z" fill="black"/>
<path d="M37.0113 24.102C36.7574 23.8208 36.4107 23.633 36.1778 23.3351C35.9816 23.0714 35.8696 22.754 35.8565 22.4248C35.8218 22.8362 35.9359 23.2463 36.1778 23.5796C36.4107 23.8786 36.7574 24.0665 37.0113 24.3477C37.2551 24.6227 37.4015 24.9714 37.4276 25.3391C37.4445 25.1153 37.4163 24.8904 37.3448 24.6778C37.2733 24.4653 37.1598 24.2694 37.0113 24.102Z" fill="black"/>
<path d="M45.7961 20.7464C45.731 21.0188 45.6151 21.2777 45.5621 21.5523C45.5307 21.7357 45.5192 21.9221 45.5279 22.108C45.5316 22.0021 45.543 21.8966 45.5621 21.7923C45.6151 21.5167 45.731 21.2588 45.7961 20.9865C45.8341 20.8363 45.8464 20.6807 45.8326 20.5264C45.8257 20.6005 45.8135 20.6741 45.7961 20.7464Z" fill="black"/>
<path opacity="0.1" d="M15.6008 84.5388C21.5421 84.5388 26.3585 83.76 26.3585 82.7993C26.3585 81.8387 21.5421 81.0599 15.6008 81.0599C9.65952 81.0599 4.84314 81.8387 4.84314 82.7993C4.84314 83.76 9.65952 84.5388 15.6008 84.5388Z" fill="white"/>
<path d="M15.9475 49.4772H15.2553V65.1679H15.9475V49.4772Z" fill="#535461"/>
<path d="M20.2974 65.1201L20.2543 65.827L20.1925 66.8273L20.1671 67.243L20.1064 68.2434L20.0799 68.659L20.0181 69.6594L19.3203 81.0043C19.29 81.4924 19.0761 81.9505 18.7221 82.2854C18.368 82.6204 17.9006 82.8069 17.4148 82.8071H13.7869C13.3012 82.8069 12.8339 82.6203 12.4801 82.2854C12.1262 81.9504 11.9125 81.4923 11.8825 81.0043L11.188 69.6516L11.1262 68.6513L11.1008 68.2356L11.039 67.2352L11.0136 66.8195L10.9518 65.8192L10.9076 65.1123C10.8999 64.9763 10.92 64.8401 10.9664 64.7121C11.0129 64.5841 11.0849 64.467 11.1779 64.368C11.271 64.2691 11.3831 64.1903 11.5075 64.1365C11.6319 64.0827 11.7659 64.0551 11.9012 64.0553H19.3214C19.4563 64.0565 19.5895 64.0854 19.7128 64.1404C19.8361 64.1954 19.9468 64.2753 20.0383 64.3751C20.1298 64.4749 20.1999 64.5924 20.2445 64.7206C20.2891 64.8487 20.3071 64.9847 20.2974 65.1201Z" fill="#3F3D56"/>
<path d="M20.2543 65.827L20.1925 66.824H11.0092L10.9473 65.827H20.2543Z" fill="#9D9CB5"/>
<path d="M20.1671 67.2397L20.1064 68.2379H11.0964L11.0345 67.2397H20.1671Z" fill="#9D9CB5"/>
<path d="M20.0799 68.6547L20.0192 69.6517H11.1836L11.1218 68.6547H20.0799Z" fill="#9D9CB5"/>
<path d="M9.89082 55.358C13.9216 58.2945 15.6042 62.8872 15.6042 62.8872C15.6042 62.8872 10.7464 62.7193 6.71452 59.7828C2.68259 56.8463 1.00336 52.2548 1.00336 52.2548C1.00336 52.2548 5.85889 52.4215 9.89082 55.358Z" fill="white"/>
<path d="M1 52.2548C1 52.2548 6.04322 55.0724 7.66063 57.4054C9.27804 59.7384 15.6041 62.8872 15.6041 62.8872" stroke="#535461" stroke-width="2" stroke-miterlimit="10"/>
<path d="M12.493 49.4426C14.6867 51.0398 15.6042 53.5395 15.6042 53.5395C15.6042 53.5395 12.96 53.4484 10.7652 51.8512C8.57039 50.254 7.65515 47.7532 7.65515 47.7532C7.65515 47.7532 10.2982 47.8443 12.493 49.4426Z" fill="white"/>
<path d="M7.65515 47.7532C7.65515 47.7532 10.3998 49.287 11.2797 50.5563C12.1596 51.8256 15.6042 53.5395 15.6042 53.5395" stroke="#535461" stroke-width="2" stroke-miterlimit="10"/>
<path d="M18.7893 53.413C16.2688 56.2017 15.7355 59.8462 15.7355 59.8462C15.7355 59.8462 19.2894 58.9682 21.8077 56.1784C24.326 53.3885 24.8615 49.7451 24.8615 49.7451C24.8615 49.7451 21.3098 50.6243 18.7893 53.413Z" fill="white"/>
<path d="M24.8637 49.7461C24.8637 49.7461 21.5803 52.6048 20.7456 54.5744C19.911 56.5439 15.7355 59.8461 15.7355 59.8461" stroke="#535461" stroke-width="2" stroke-miterlimit="10"/>
<path d="M111.314 52.4315C111.314 52.4315 109.491 43.3018 110.189 42.1659C110.189 42.1659 110.214 41.11 110.172 39.764C110.172 39.7128 110.172 39.6617 110.172 39.6095C110.295 39.6919 110.423 39.7661 110.555 39.8318C111.198 40.1643 111.936 40.2602 112.642 40.103L112.09 39.4839C111.957 39.336 111.819 39.176 111.791 38.9804C111.762 38.7847 111.842 38.6102 111.91 38.4357C112.434 37.102 112.462 35.4247 111.452 34.4066C110.598 33.5508 110.391 32.446 109.465 31.6646C108.788 31.0922 108.416 30.253 108.065 29.4416C107.768 28.7559 107.468 28.0645 107.298 27.3376C107.166 26.7696 107.113 26.1817 106.931 25.627C106.749 25.0724 106.408 24.5333 105.874 24.2855C105.684 24.1977 105.473 24.1477 105.3 24.031C105.073 23.8765 104.936 23.6253 104.771 23.4052C103.936 22.2937 101.137 22.9484 99.812 23.3996C99.4518 23.5133 99.1183 23.6993 98.8316 23.9465L98.8438 23.9265C98.8537 23.9098 98.8659 23.8931 98.8769 23.8765C98.7319 23.9945 98.6066 24.1352 98.5059 24.2933C98.3127 24.6011 98.2321 24.9602 98.071 25.2936C97.8766 25.6882 96.7958 26.7897 97.2606 27.2331C97.2932 27.2629 97.3305 27.287 97.371 27.3043C97.5455 27.3774 97.7376 27.3967 97.923 27.3598L97.9031 27.4076C97.7444 27.7989 97.663 28.2176 97.6636 28.6403C97.6636 30.4664 99.1595 31.9469 101.007 31.9469C101.354 31.9473 101.699 31.8936 102.03 31.788C102.038 31.8302 102.044 31.8724 102.052 31.9147C102.052 31.9314 102.058 31.948 102.06 31.9647L102.001 32.047C101.998 32.0419 101.995 32.037 101.991 32.0325L100.258 34.4711C99.9931 34.6589 98.4673 35.7704 98.3812 36.604C98.2907 37.5165 98.2001 38.5847 98.2001 38.5847L98.188 38.8136C98.1122 38.8774 98.0236 38.9238 97.9283 38.9497C97.833 38.9756 97.7333 38.9804 97.636 38.9637C97.095 38.8748 97.095 40.9644 97.095 40.9644C97.095 40.9644 96.7351 41.2978 96.4878 41.0088C96.2405 40.7198 95.5869 41.699 95.5869 41.699L91.4909 41.8769L91.3971 41.8824L91.1763 41.1944C91.1525 41.1219 91.1013 41.0617 91.0337 41.0269C90.9661 40.9922 90.8876 40.9856 90.8152 41.0088C90.7981 41.0145 90.7815 41.0215 90.7656 41.0299L90.7501 41.0388L90.7214 41.0588L90.7071 41.0722C90.6991 41.0794 90.6918 41.0872 90.685 41.0955L90.6717 41.1111L90.6651 41.1177C90.6396 41.1532 90.6227 41.1942 90.6158 41.2375C90.6089 41.2807 90.6122 41.325 90.6254 41.3667L90.8152 41.9569C90.0248 42.117 89.2166 42.5682 89.8757 43.8109L86.5349 43.1895L87.6158 44.1032L93.1955 45.2624C93.1216 45.3958 93.1701 45.5892 93.4009 45.8615C94.3945 47.0364 96.2051 47.3554 96.9338 47.4376C97.1262 47.871 97.3666 48.2811 97.6503 48.6602L97.5874 49.8306C97.5874 49.8306 95.7425 58.7514 95.4047 59.2038C95.5753 59.0092 95.7313 58.8023 95.8717 58.5847C95.3363 60.4175 94.5877 62.9261 94.3912 63.3018C94.0755 63.902 93.7829 66.3306 94.1428 66.4862C94.2532 66.534 94.569 66.5106 95.0194 66.4762V66.6773L94.9995 74.301C94.9995 74.301 95.0901 78.977 94.8417 79.4227C94.5933 79.8684 94.527 80.8031 94.527 80.8031C94.527 80.8031 93.5334 82.6471 92.7462 83.3884C92.7408 83.3942 92.7349 83.3994 92.7285 83.404L92.7042 83.2306C92.7042 83.2306 91.7581 84.4332 89.6648 84.3654C89.6648 84.3654 88.4051 85.1902 90.2732 85.2346C92.1412 85.2791 94.527 85.1679 94.527 85.1679C94.527 85.1679 96.193 82.6115 97.5885 82.945V84.8823H98.0158V82.9138C98.2139 82.7825 98.3835 82.612 98.5142 82.4128C98.645 82.2135 98.7342 81.9896 98.7764 81.7546C98.813 81.5123 98.7862 81.2647 98.6987 81.036C98.6112 80.8074 98.466 80.6057 98.2774 80.4508C98.1927 80.3737 98.1247 80.2798 98.0778 80.175C98.0309 80.0701 98.006 79.9567 98.0047 79.8417L97.9892 79.855C97.9892 79.8161 97.9793 79.7761 97.9749 79.735C97.8524 78.7347 97.6989 76.6707 98.241 75.1435C98.984 73.0495 99.2092 70.1329 98.6682 68.3968C98.4937 67.8418 98.3503 67.2774 98.2388 66.7062C98.2255 66.634 98.2134 66.5651 98.2023 66.5006C98.5721 66.551 98.9383 66.6252 99.2986 66.7229C100.552 67.0708 103.293 67.1353 105.634 67.1164C105.639 67.1808 105.646 67.2486 105.653 67.3164C105.695 67.7877 105.782 68.2538 105.914 68.708C106.208 69.5972 106.342 73.5174 106.342 73.5174C106.342 73.5174 106.721 76.7407 106.515 78.0522C106.404 78.7814 106.294 79.5138 106.231 80.2496V80.2641C106.231 80.2641 105.61 82.0424 105.157 83.0083C105.146 83.0328 105.133 83.0572 105.122 83.0806C105.001 83.0917 104.882 83.1182 104.768 83.1595C104.768 83.1595 104.16 84.3821 103.554 84.5844C102.947 84.7867 103.148 85.4525 104.521 85.2079C105.893 84.9634 107.965 84.7633 107.965 84.7633L108.055 83.5163L108.476 82.985L108.366 84.2287L108.815 84.1398L108.756 82.6271L109.446 81.7579C109.446 81.7579 110.279 81.011 109.041 79.5416V79.5738C109.027 79.5527 109.015 79.5305 109.001 79.5094V79.5027C108.796 79.1826 108.632 78.5857 108.931 77.5265C109.472 75.6125 109.787 73.8753 109.787 73.8753C109.787 73.8753 110.995 69.2215 109.543 67.0197H109.607C109.458 66.7098 109.353 66.3806 109.295 66.0416C109.287 66.0016 109.281 65.9604 109.275 65.9182C110.349 65.856 111.403 65.6603 112.263 65.238C112.26 65.2335 111.742 54.1899 111.314 52.4315ZM97.6757 44.7289V44.7512L97.4549 44.7623L97.6757 44.7289ZM96.9183 44.8345C96.882 44.8426 96.848 44.859 96.819 44.8823C96.7241 45.0175 96.6644 45.1746 96.6456 45.3391L96.3012 45.2613C96.3012 45.2613 96.0594 45.2091 95.7116 45.1502L95.5471 44.9835C95.9998 44.9457 96.4701 44.8901 96.9183 44.8345Z" fill="url(#paint1_linear_113_4453)"/>
<path d="M108.315 82.6426L108.184 84.2176L108.624 84.1287L108.558 82.4203L108.315 82.6426Z" fill="#1D2366"/>
<path d="M98.2653 75.1645C97.7342 76.6873 97.8844 78.7424 98.0036 79.7405C98.0478 80.1095 98.0886 80.334 98.0886 80.334C98.0886 80.334 97.2948 82.1546 97.2286 82.2235C97.1624 82.2925 94.8925 83.6874 94.8925 83.6874L93.306 84.6199C93.306 84.6199 91.6963 83.9097 92.468 83.6651C92.6257 83.6014 92.7677 83.504 92.8842 83.3795C93.657 82.6403 94.6275 80.8031 94.6275 80.8031C94.6275 80.8031 94.6937 79.8705 94.9366 79.4271C95.1795 78.9836 95.0912 74.3231 95.0912 74.3231L95.11 66.7262V65.7358L98.1295 65.7581C98.1485 66.0943 98.1921 66.4286 98.2598 66.7584C98.3681 67.3276 98.5086 67.8902 98.6804 68.4434C99.2125 70.1762 98.9917 73.0783 98.2653 75.1645Z" fill="#FFB0B1"/>
<path opacity="0.1" d="M98.0886 80.3341C98.0886 80.3341 97.2948 82.1547 97.2286 82.2236C97.1624 82.2925 94.8925 83.6874 94.8925 83.6874L93.306 84.62C93.306 84.62 91.6963 83.9097 92.468 83.6652C92.6257 83.6015 92.7677 83.504 92.8842 83.3796L92.9527 83.8653L93.4815 83.8431L98.008 79.7428C98.0478 80.1096 98.0886 80.3341 98.0886 80.3341Z" fill="black"/>
<path d="M98.0334 79.8462L93.4815 83.9742L92.9526 83.9965L92.8422 83.2184C92.8422 83.2184 91.9171 84.4166 89.8614 84.3499C89.8614 84.3499 88.627 85.1713 90.4564 85.2158C92.2858 85.2602 94.6219 85.1491 94.6219 85.1491C94.6219 85.1491 96.2537 82.5927 97.6194 82.9261V84.8567H98.0389V82.9083C98.234 82.7761 98.4005 82.6056 98.5283 82.4069C98.6562 82.2083 98.7429 81.9856 98.783 81.7524C98.8194 81.5121 98.7937 81.2665 98.7084 81.0391C98.6231 80.8118 98.4812 80.6103 98.2962 80.4542C98.2135 80.3762 98.1476 80.282 98.1024 80.1775C98.0572 80.0729 98.0338 79.9602 98.0334 79.8462Z" fill="#1D2366"/>
<path d="M108.735 77.5387C108.441 78.5946 108.601 79.1892 108.802 79.5082V79.5149C109.06 79.9087 109.239 80.3493 109.33 80.812L109.348 80.912L107.276 83.9519L106.152 84.3965C106.152 84.3965 104.345 83.7752 104.675 83.5973C104.758 83.554 104.887 83.3228 105.035 83.0038C105.477 82.0424 106.086 80.2685 106.086 80.2685V80.254C106.15 79.5215 106.252 78.7913 106.364 78.0644C106.566 76.7562 106.196 73.5451 106.196 73.5451C106.196 73.5451 106.063 69.6405 105.776 68.7524C105.646 68.3009 105.56 67.8379 105.519 67.3697C105.459 66.814 105.446 66.3561 105.446 66.3561C105.446 66.3561 106.636 64.6889 108.818 66.4894C108.992 66.6331 109.146 66.8007 109.274 66.9874C110.781 69.1459 109.567 73.9008 109.567 73.9008C109.567 73.9008 109.264 75.6303 108.735 77.5387Z" fill="#FFB0B1"/>
<path opacity="0.1" d="M109.351 80.912L107.28 83.9519L106.156 84.3965C106.156 84.3965 104.348 83.7752 104.679 83.5974C104.761 83.554 104.891 83.3228 105.039 83.0038C105.804 82.9972 106.2 83.7308 106.2 83.7308L107.169 83.5752C107.169 83.5752 108.448 81.0454 108.735 80.8909C109.022 80.7364 108.779 79.7361 108.779 79.7361V79.4816C108.787 79.4905 108.793 79.5005 108.802 79.5094V79.516C109.06 79.9099 109.239 80.3504 109.33 80.8131L109.351 80.912Z" fill="black"/>
<path d="M106.266 83.7963C106.266 83.7963 105.714 82.776 104.656 83.1528C104.656 83.1528 104.061 84.3754 103.466 84.5732C102.871 84.7711 103.07 85.438 104.415 85.1946C105.759 84.9511 107.786 84.75 107.786 84.75L107.875 83.5062L109.242 81.7534C109.242 81.7534 110.056 81.0098 108.844 79.546V79.8006C108.844 79.8006 109.087 80.8009 108.8 80.9554C108.513 81.1099 107.239 83.6407 107.239 83.6407L106.266 83.7963Z" fill="#1D2366"/>
<path opacity="0.1" d="M98.1328 65.7559C98.1519 66.0921 98.1954 66.4264 98.2631 66.7562C97.02 66.5728 95.8662 66.6639 95.11 66.724V65.7336L98.1328 65.7559Z" fill="black"/>
<path opacity="0.1" d="M109.396 67.2642C109.396 67.2642 107.63 67.3509 105.523 67.3686C105.464 66.8129 105.45 66.355 105.45 66.355C105.45 66.355 106.64 64.6878 108.822 66.4883C108.996 66.632 109.15 66.7996 109.278 66.9863C109.312 67.0811 109.352 67.1738 109.396 67.2642Z" fill="black"/>
<path d="M109.396 67.0641C109.396 67.0641 101.659 67.4409 99.3009 66.7751C96.9427 66.1094 94.6054 66.6862 94.2532 66.5317C93.901 66.3772 94.187 63.9575 94.4961 63.3584C94.8053 62.7594 96.501 56.7007 96.501 56.7007L98.1328 48.1356L99.8518 47.6588L99.9732 47.6243L102.968 46.7929L105.163 46.1827C105.163 46.1827 109.528 63.3362 109.153 64.6011C109.017 65.0854 108.995 65.595 109.089 66.0893C109.146 66.427 109.25 66.755 109.396 67.0641Z" fill="#1D2366"/>
<path d="M92.4448 42.2781C92.4448 42.2781 90.8992 43.9453 92.0695 44.8745C93.2397 45.8037 94.0092 44.9634 94.0092 44.9634L92.4448 42.2781Z" fill="#C7DAF5"/>
<path opacity="0.1" d="M92.4448 42.2781C92.4448 42.2781 90.8992 43.9453 92.0695 44.8745C93.2397 45.8037 94.0092 44.9634 94.0092 44.9634L92.4448 42.2781Z" fill="black"/>
<path d="M104.933 31.3167C104.933 31.3167 104.751 31.4901 104.479 31.7457C104.09 32.1114 103.515 32.646 103.005 33.094C102.298 33.7131 101.715 34.1677 101.924 33.7797C102.133 33.3918 102.093 32.7161 101.989 32.0836C101.981 32.0414 101.975 31.9992 101.967 31.958C101.881 31.4936 101.767 31.0348 101.626 30.5842C101.626 30.5842 102.768 29.0993 103.399 28.5136C103.634 28.2913 103.799 28.2001 103.809 28.3546C103.82 28.5625 103.974 29.0215 104.166 29.5083C104.172 29.5239 104.177 29.5383 104.184 29.5539C104.312 29.8873 104.457 30.2297 104.584 30.5253C104.778 30.9788 104.933 31.3167 104.933 31.3167Z" fill="#FFB0B1"/>
<path opacity="0.1" d="M104.184 29.5539C104.077 30.1348 103.816 30.6761 103.43 31.1211C103.044 31.5661 102.547 31.8985 101.989 32.0837C101.901 31.5763 101.78 31.0754 101.626 30.5843C101.626 30.5843 103.776 27.7889 103.809 28.3546C103.816 28.5692 103.984 29.0449 104.184 29.5539Z" fill="black"/>
<path opacity="0.1" d="M101.775 32.8306L102.053 32.436C102.053 32.436 102.238 33.5675 102.915 33.0685C103.593 32.5694 103.626 36.8242 103.626 36.8242L102.899 47.7756L97.6415 47.4588L97.7905 42.167L98.3856 39.4995L99.8573 35.6215L100.733 34.34L101.775 32.8306Z" fill="black"/>
<path d="M103.626 36.8918L102.964 46.794L102.894 47.8433L99.9632 47.6665L99.8528 47.6599L97.6448 47.5265L97.7938 42.2336L98.3889 39.5661L99.8606 35.6881L100.736 34.4066L101.778 32.8916L102.056 32.4982C102.056 32.4982 102.241 33.6297 102.919 33.1306L102.933 33.1206C103.596 32.6982 103.626 36.8918 103.626 36.8918Z" fill="#1D2366"/>
<path d="M98.4629 38.6392C98.4629 38.6392 98.199 39.1949 97.6691 39.1049C97.1392 39.0148 97.1403 41.1055 97.1403 41.1055C97.1403 41.1055 96.7881 41.439 96.5452 41.15C96.3023 40.861 95.662 41.838 95.662 41.838L91.6499 42.0158C91.6499 42.0158 93.4351 42.8372 93.0851 45.3225C93.0851 45.3225 99.1463 44.9446 99.345 44.3677C99.5437 43.7909 98.4629 38.6392 98.4629 38.6392Z" fill="white"/>
<path opacity="0.03" d="M98.4629 38.6392C98.4629 38.6392 98.199 39.1949 97.6691 39.1049C97.1392 39.0148 97.1403 41.1055 97.1403 41.1055C97.1403 41.1055 96.7881 41.439 96.5452 41.15C96.3023 40.861 95.662 41.838 95.662 41.838L91.6499 42.0158C91.6499 42.0158 93.4351 42.8372 93.0851 45.3225C93.0851 45.3225 99.1463 44.9446 99.345 44.3677C99.5437 43.7909 98.4629 38.6392 98.4629 38.6392Z" fill="black"/>
<path d="M86.8032 43.3218L87.8609 44.231L96.5673 46.0727L95.4875 44.9634L86.8032 43.3218Z" fill="white"/>
<path d="M101.792 33.1806C101.647 33.4029 101.233 34.541 100.887 35.5347C100.599 36.3628 100.359 37.0908 100.359 37.0908C100.359 37.0908 99.7966 40.7742 99.5095 41.44C99.2225 42.1058 99.3782 44.7022 99.3782 44.7022L98.3083 51.1143C98.3083 51.1143 97.8237 54.421 97.0751 56.3961C96.3365 58.3401 95.514 59.2515 95.4886 59.2804C95.8199 58.8291 97.6249 49.9439 97.6249 49.9439L98.2211 38.738C98.2211 38.738 98.3083 37.6732 98.3967 36.7629C98.485 35.8526 100.274 34.61 100.274 34.61L101.998 32.1414C102.171 32.3748 102.055 32.7816 101.792 33.1806Z" fill="white"/>
<path d="M97.2948 47.5821C97.2948 47.5821 94.7555 47.4709 93.5256 45.9838C92.2957 44.4966 96.3685 45.3903 96.3685 45.3903L97.4273 45.6348L97.2948 47.5821Z" fill="#FFB0B1"/>
<path opacity="0.1" d="M109.153 64.6022C109.017 65.0865 108.995 65.5961 109.089 66.0905C106.319 66.2883 103.356 65.5347 103.356 65.5347C102.804 66.046 101.35 66.7996 101.35 66.7996L100.557 56.9074C100.05 55.5736 99.8517 48.5857 99.8517 48.5857C99.8517 48.5857 99.897 48.2201 99.9621 47.6721C99.9621 47.6588 99.9621 47.6443 99.9677 47.631C100.165 46.1005 100.557 43.2273 100.749 42.8394C101.014 42.3059 99.9345 40.8865 99.9345 40.8865L100.426 36.6685L100.485 36.1594C101.521 35.6937 102.315 34.2065 102.315 34.2065L102.924 33.1317C103.587 32.7038 103.621 36.8974 103.621 36.8974L102.958 46.7996L105.153 46.1894C105.153 46.1894 109.527 63.3373 109.153 64.6022Z" fill="black"/>
<path d="M111.996 65.2857C108.977 66.7951 103.488 65.3968 103.488 65.3968C102.936 65.9081 101.482 66.6617 101.482 66.6617L100.689 56.7695C100.183 55.4358 99.9843 48.4479 99.9843 48.4479C99.9843 48.4479 100.622 43.2339 100.887 42.7015C100.965 42.5459 100.927 42.3147 100.835 42.0658C100.385 40.8807 100.219 39.6052 100.352 38.3434L100.564 36.5306L100.622 36.0226C101.659 35.5558 102.453 34.0687 102.453 34.0687L103.005 33.095L104.021 31.3011L104.502 30.4519L104.584 30.5264L105.207 31.0955C105.207 31.0955 105.472 31.3177 105.87 31.6512C106.734 32.3848 108.228 33.6763 108.999 34.4666C109.677 35.1624 109.891 37.8688 109.953 39.9062C109.993 41.2477 109.969 42.2992 109.969 42.2992C109.286 43.4318 111.073 52.5248 111.073 52.5248C111.489 54.282 111.996 65.2857 111.996 65.2857Z" fill="white"/>
<path opacity="0.03" d="M106.2 34.0464C106.2 34.0464 104.128 38.0177 104.368 39.5271C104.609 41.0365 105.294 42.7449 104.963 43.1439C104.85 43.2951 104.703 43.4178 104.535 43.5024C104.367 43.5871 104.181 43.6314 103.993 43.6318C103.662 43.6541 102.779 44.2754 102.779 44.3421C102.779 44.4088 101.963 44.4087 101.233 44.72C100.503 45.0312 99.4256 45.2079 99.4256 45.2079C99.4256 45.2079 97.3279 45.1412 97.1325 45.3413C96.9371 45.5413 96.7362 46.7384 97.1546 47.6932C97.573 48.6479 98.0378 49.3604 98.3889 49.4904C98.74 49.6205 100.968 48.8691 102.775 48.6913C104.583 48.5134 106.544 47.0719 106.544 47.0719C106.544 47.0719 108.705 46.2938 109.084 44.9856C109.462 43.6774 108.621 36.4872 108.621 36.4872C108.621 36.4872 107.985 33.1361 106.2 34.0464Z" fill="black"/>
<path opacity="0.03" d="M105.935 33.7131C105.935 33.7131 103.863 37.6855 104.106 39.1938C104.349 40.7021 105.031 42.4115 104.7 42.8117C104.587 42.963 104.44 43.0859 104.272 43.1705C104.104 43.2552 103.918 43.2994 103.73 43.2996C103.399 43.3218 102.516 43.9432 102.516 44.0099C102.516 44.0765 101.7 44.0765 100.97 44.3866C100.24 44.6968 99.1629 44.8746 99.1629 44.8746C99.1629 44.8746 97.0652 44.8079 96.8709 45.008C96.6766 45.208 96.4734 46.4062 96.893 47.3599C97.3125 48.3135 97.7762 49.0271 98.1273 49.1571C98.4784 49.2872 100.706 48.5358 102.514 48.3591C104.321 48.1824 106.283 46.7385 106.283 46.7385C106.283 46.7385 108.442 45.9605 108.817 44.6534C109.191 43.3463 108.354 36.1539 108.354 36.1539C108.354 36.1539 107.72 32.8039 105.935 33.7131Z" fill="black"/>
<path d="M106.135 33.8464C106.135 33.8464 104.063 37.8188 104.305 39.3271C104.548 40.8354 105.231 42.5448 104.901 42.9439C104.788 43.0955 104.641 43.2187 104.473 43.3036C104.304 43.3885 104.118 43.4327 103.93 43.4329C103.599 43.4551 102.716 44.0765 102.716 44.142C102.716 44.2076 101.901 44.2087 101.17 44.5199C100.439 44.8312 99.3627 45.0079 99.3627 45.0079C99.3627 45.0079 97.2651 44.9412 97.0696 45.1413C96.8742 45.3413 96.6733 46.5395 97.0917 47.4931C97.5102 48.4468 97.9749 49.1604 98.326 49.2904C98.6771 49.4204 100.905 48.6691 102.712 48.4913C104.52 48.3134 106.482 46.8718 106.482 46.8718C106.482 46.8718 108.642 46.0938 109.021 44.7856C109.399 43.4774 108.564 36.2872 108.564 36.2872C108.564 36.2872 107.919 32.9416 106.135 33.8464Z" fill="white"/>
<path opacity="0.1" d="M106.09 44.5011C106.09 44.5011 104.433 44.1676 105.01 44.7234C105.586 45.2791 105.583 45.7659 106.288 45.7437C106.994 45.7215 106.09 44.5011 106.09 44.5011Z" fill="black"/>
<path opacity="0.1" d="M108.888 56.4584C108.888 56.4584 108.14 56.9685 109.572 58.1445C111.004 59.3204 108.888 56.4584 108.888 56.4584Z" fill="black"/>
<path opacity="0.1" d="M107.46 60.652C107.46 60.7187 107.195 63.0972 108.186 63.6919C109.178 64.2865 107.46 60.652 107.46 60.652Z" fill="black"/>
<path d="M91.7183 42.0103C90.919 42.038 89.1923 42.2837 90.0877 43.9653C90.8793 45.4536 92.2096 44.4588 92.9582 43.7041C92.7756 43.0005 92.3318 42.3942 91.7183 42.0103Z" fill="#FFB0B1"/>
<path opacity="0.1" d="M105.87 31.7191C105.022 32.3026 104.311 32.795 104.172 32.8973C103.792 33.1807 103.068 34.8446 102.601 35.6937C102.229 36.3773 101.02 36.5529 100.564 36.5963L100.622 36.0883C101.659 35.6215 102.453 34.1343 102.453 34.1343L104.502 30.5176L105.207 31.1633C105.207 31.1633 105.472 31.3856 105.87 31.7191Z" fill="black"/>
<path d="M105.87 31.6524C105.022 32.236 104.311 32.7284 104.172 32.8317C103.792 33.114 103.068 34.7779 102.601 35.6271C102.229 36.3107 101.02 36.4863 100.564 36.5296L100.622 36.0217C101.659 35.5548 102.453 34.0677 102.453 34.0677L104.502 30.4509L105.207 31.0945C105.207 31.0945 105.472 31.3145 105.87 31.6524Z" fill="#DCE7FF"/>
<path d="M104.238 28.8203C104.239 29.4875 104.038 30.1391 103.662 30.6887C103.218 31.3385 102.557 31.8066 101.8 32.0081C101.043 32.2095 100.239 32.1311 99.5341 31.7868C98.8294 31.4426 98.2706 30.8554 97.959 30.1319C97.6475 29.4083 97.604 28.5963 97.8363 27.8432C98.0686 27.0901 98.5613 26.4457 99.2252 26.0271C99.889 25.6084 100.68 25.4432 101.454 25.5614C102.229 25.6796 102.936 26.0734 103.446 26.6713C103.957 27.2692 104.238 28.0317 104.238 28.8203Z" fill="#FFB0B1"/>
<path opacity="0.1" d="M109.953 39.9073C109.504 39.6296 109.139 39.2347 108.896 38.7647C108.712 38.3979 108.589 37.9744 108.274 37.7143C107.991 37.4809 107.612 37.4242 107.259 37.3198C106.097 36.9741 105.124 35.9071 105.087 34.6889C105.069 34.1154 105.247 33.5429 105.167 32.975C105.121 32.6535 104.994 32.3493 104.798 32.0914C104.701 31.968 104.594 31.8524 104.479 31.7457C104.324 31.599 104.162 31.4567 104.021 31.3011C103.932 31.2047 103.854 31.0985 103.789 30.9843C103.736 30.8909 103.694 30.7922 103.662 30.6898C103.441 30.0095 103.642 29.2026 103.399 28.5146L103.386 28.4768C103.294 28.2323 103.108 27.9878 102.848 27.9689C102.589 27.95 102.367 28.1667 102.119 28.2634C101.602 28.4657 101.043 28.1211 100.611 27.7699C100.18 27.4187 99.6928 27.0174 99.1441 27.0952C98.7808 27.1475 98.4938 27.3965 98.1593 27.5254C98.0838 27.5548 98.0058 27.5775 97.9263 27.5932C98.2094 26.8824 98.7296 26.2931 99.3974 25.9264C100.065 25.5598 100.839 25.4387 101.586 25.5841C102.333 25.7294 103.006 26.132 103.49 26.7228C103.974 27.3136 104.238 28.0556 104.238 28.8214C104.238 29.0526 104.214 29.2833 104.166 29.5094C104.172 29.5249 104.177 29.5394 104.184 29.555C104.312 29.8884 104.457 30.2307 104.584 30.5264L105.207 31.0955C105.207 31.0955 105.472 31.3178 105.87 31.6512C106.734 32.3848 108.228 33.6763 108.999 34.4666C109.677 35.1646 109.889 37.8699 109.953 39.9073Z" fill="black"/>
<path d="M98.1206 25.4948C98.2785 25.1713 98.3569 24.809 98.5457 24.5022C98.8228 24.0576 99.3064 23.7731 99.8032 23.6008C101.1 23.1507 103.842 22.4971 104.661 23.6008C104.822 23.8231 104.956 24.0699 105.179 24.2232C105.349 24.3399 105.554 24.39 105.741 24.4778C106.263 24.7245 106.596 25.2625 106.774 25.8115C106.952 26.3606 107.005 26.9497 107.135 27.5154C107.302 28.2412 107.594 28.9292 107.886 29.6128C108.229 30.4197 108.593 31.2567 109.256 31.8269C110.16 32.6049 110.36 33.7064 111.199 34.56C112.193 35.5737 112.161 37.2465 111.648 38.5747C111.581 38.7492 111.505 38.9315 111.531 39.1171C111.558 39.3027 111.695 39.4716 111.824 39.6195L112.367 40.2363C111.082 40.5487 109.628 39.8729 109.03 38.6869C108.845 38.3201 108.723 37.8978 108.407 37.6366C108.124 37.4032 107.744 37.3476 107.392 37.2431C106.231 36.8963 105.257 35.8282 105.221 34.61C105.203 34.0376 105.381 33.4652 105.3 32.8983C105.255 32.5747 105.128 32.2684 104.93 32.0092C104.627 31.6101 104.169 31.3423 103.921 30.8977C103.503 30.1541 103.821 29.1882 103.519 28.3902C103.427 28.1457 103.241 27.9011 102.982 27.8822C102.722 27.8633 102.5 28.0801 102.252 28.1768C101.735 28.3791 101.177 28.0356 100.745 27.6833C100.313 27.3309 99.8264 26.9308 99.2766 27.0097C98.9133 27.0608 98.6274 27.3098 98.2929 27.4399C98.0456 27.5354 97.5443 27.621 97.3279 27.411C96.8709 26.9875 97.9296 25.8905 98.1206 25.4948Z" fill="#591D4B"/>
<path opacity="0.1" d="M109.337 38.3202C109.151 37.9534 109.03 37.531 108.714 37.2709C108.431 37.0375 108.051 36.9808 107.698 36.8764C106.538 36.5307 105.564 35.4626 105.526 34.2444C105.509 33.672 105.687 33.0984 105.607 32.5316C105.561 32.2101 105.434 31.9058 105.237 31.648C104.933 31.2489 104.474 30.9811 104.228 30.5365C103.81 29.794 104.128 28.8281 103.825 28.029C103.734 27.7856 103.547 27.541 103.289 27.521C103.03 27.501 102.806 27.72 102.559 27.8167C102.042 28.019 101.482 27.6744 101.052 27.3232C100.621 26.972 100.132 26.5707 99.5835 26.6485C99.2203 26.7008 98.9332 26.9497 98.5998 27.0787C98.3525 27.1742 97.8502 27.2609 97.6338 27.0509C97.1789 26.6063 98.2377 25.5115 98.4276 25.118C98.5854 24.7935 98.6638 24.4322 98.8537 24.1255C98.8637 24.1088 98.8747 24.0921 98.8857 24.0754C98.7437 24.1939 98.6211 24.3342 98.5225 24.4911C98.3337 24.7979 98.2553 25.158 98.0975 25.4837C97.9065 25.8771 96.8477 26.9753 97.3037 27.4165C97.5245 27.6277 98.0213 27.541 98.2686 27.4454C98.5998 27.3154 98.889 27.0664 99.2523 27.0153C99.8043 26.9364 100.29 27.3376 100.721 27.6889C101.151 28.0401 101.714 28.3846 102.229 28.1824C102.476 28.0857 102.692 27.8678 102.957 27.8878C103.222 27.9078 103.399 28.1512 103.495 28.3958C103.796 29.1938 103.479 30.1597 103.897 30.9033C104.144 31.3401 104.602 31.6135 104.906 32.0147C105.104 32.274 105.231 32.5803 105.276 32.9039C105.356 33.4708 105.179 34.0432 105.196 34.6156C105.233 35.8382 106.207 36.9019 107.368 37.2487C107.718 37.3532 108.1 37.4088 108.383 37.6422C108.699 37.9034 108.824 38.3257 109.005 38.6925C109.604 39.8785 111.058 40.5542 112.343 40.2419L112.087 39.9507C110.973 39.9674 109.845 39.3294 109.337 38.3202Z" fill="black"/>
<path opacity="0.1" d="M101.725 33.2474C101.581 33.4697 101.167 34.6078 100.821 35.6015C100.498 35.4748 100.204 34.6667 100.204 34.6667L101.928 32.197C102.105 32.4415 101.989 32.8472 101.725 33.2474Z" fill="black"/>
<path d="M101.792 33.1806C101.647 33.4029 101.233 34.541 100.887 35.5347C100.564 35.4091 100.27 34.5999 100.27 34.5999L101.995 32.1313C102.171 32.3748 102.055 32.7816 101.792 33.1806Z" fill="#DCE7FF"/>
<path d="M91.7647 44.5355L90.8086 41.5001C90.7973 41.4645 90.7931 41.4271 90.7961 41.3899C90.7992 41.3527 90.8096 41.3165 90.8266 41.2834C90.8437 41.2502 90.867 41.2208 90.8954 41.1967C90.9237 41.1727 90.9565 41.1545 90.9919 41.1433C91.063 41.1209 91.1401 41.1278 91.2063 41.1623C91.2724 41.1969 91.3223 41.2564 91.3452 41.3278L92.3013 44.3599L92.2063 44.9946L91.7647 44.5355Z" fill="#BE8B87"/>
<path opacity="0.1" d="M90.8992 41.2333C90.9705 41.2106 91.0478 41.2172 91.1142 41.2518C91.1806 41.2864 91.2307 41.3461 91.2536 41.4178L92.2096 44.4499L92.1379 44.9256L92.2074 44.999L92.3024 44.3643L91.3408 41.3322C91.3179 41.2608 91.268 41.2013 91.2018 41.1667C91.1357 41.1322 91.0586 41.1253 90.9875 41.1477C90.9276 41.1672 90.8759 41.2064 90.8406 41.2588C90.8594 41.2487 90.879 41.2402 90.8992 41.2333Z" fill="white"/>
<path d="M91.7647 44.5355L92.3013 44.3644L92.2229 44.8846L92.2063 44.999L92.0496 44.8345L91.7647 44.5355Z" fill="#EFC8C4"/>
<path d="M92.0496 44.8346C92.0589 44.8227 92.0705 44.8128 92.0838 44.8057C92.0915 44.8007 92.1006 44.7981 92.1097 44.7981C92.1189 44.7981 92.1279 44.8007 92.1357 44.8057C92.1432 44.8148 92.1495 44.8249 92.1544 44.8357C92.1617 44.8479 92.1717 44.8584 92.1835 44.8663C92.1954 44.8742 92.2088 44.8793 92.2229 44.8812L92.2063 44.9924L92.0496 44.8346Z" fill="#727A9C"/>
<path d="M90.8031 42.5781C90.8031 42.5781 92.7208 42.567 92.2693 43.3884C91.8177 44.2098 91.1122 44.3087 91.1122 44.3087L90.8031 42.5781Z" fill="#FFB0B1"/>
<path d="M78.8762 5.71594H78.7934C75.499 5.71594 72.5855 7.47097 70.9096 10.0607C69.2336 7.47097 66.3201 5.71594 63.0257 5.71594H62.9429C60.4705 5.73966 58.1073 6.74473 56.3668 8.51273C54.6264 10.2807 53.6494 12.6688 53.648 15.158C53.648 18.249 54.9927 22.6349 57.6148 26.2439C62.6105 33.1206 70.9096 39.137 70.9096 39.137C70.9096 39.137 79.2086 33.1217 84.2032 26.2439C86.8264 22.6349 88.17 18.249 88.17 15.158C88.1687 12.669 87.1918 10.2811 85.4515 8.51312C83.7113 6.74515 81.3484 5.73995 78.8762 5.71594ZM77.6916 26.7729C77.3164 26.7715 76.9504 26.6559 76.6417 26.4412C76.3329 26.2266 76.0959 25.923 75.9616 25.5703H73.992C73.8623 25.5695 73.7361 25.5279 73.631 25.4514C73.5259 25.3749 73.4472 25.2673 73.4058 25.1435L72.8008 23.3084L70.8864 30.0429C70.8491 30.1726 70.771 30.2865 70.6639 30.3677C70.5568 30.4489 70.4265 30.4928 70.2924 30.4931H70.2538C70.1139 30.4863 69.9806 30.4313 69.8761 30.3375C69.7716 30.2436 69.7022 30.1165 69.6797 29.9773L67.7068 18.0311L66.2649 25.1002C66.2318 25.2344 66.155 25.3537 66.0468 25.4389C65.9385 25.5241 65.805 25.5704 65.6676 25.5703H62.8932C62.81 25.5739 62.727 25.5604 62.6491 25.5308C62.5712 25.5012 62.5001 25.4561 62.44 25.3981C62.3799 25.3401 62.3321 25.2705 62.2994 25.1934C62.2668 25.1163 62.2499 25.0334 62.2499 24.9496C62.2499 24.8657 62.2668 24.7828 62.2994 24.7057C62.3321 24.6286 62.3799 24.559 62.44 24.501C62.5001 24.443 62.5712 24.3979 62.6491 24.3683C62.727 24.3387 62.81 24.3252 62.8932 24.3288H65.1818L67.2243 14.8245C67.2578 14.684 67.3388 14.5596 67.4534 14.4725C67.5679 14.3854 67.709 14.3411 67.8524 14.3472C67.9958 14.3532 68.1327 14.4092 68.2397 14.5056C68.3466 14.602 68.417 14.7328 68.4387 14.8757L70.4536 27.0619L72.1693 21.0366C72.205 20.9097 72.2805 20.7978 72.3846 20.7177C72.4886 20.6376 72.6157 20.5935 72.7467 20.592H72.7588C72.8886 20.592 73.015 20.6333 73.1201 20.71C73.2251 20.7866 73.3035 20.8947 73.3439 21.0188L74.438 24.3321H75.9373C76.0439 24.0061 76.2379 23.716 76.4979 23.494C76.7579 23.2719 77.0738 23.1265 77.4107 23.0738C77.7476 23.0211 78.0924 23.0631 78.4071 23.1952C78.7218 23.3273 78.9941 23.5444 79.194 23.8225C79.3938 24.1005 79.5135 24.4288 79.5398 24.771C79.566 25.1133 79.4979 25.4561 79.3428 25.7618C79.1877 26.0675 78.9518 26.3241 78.661 26.5033C78.3702 26.6825 78.0359 26.7774 77.6949 26.7774L77.6916 26.7729Z" fill="white"/>
<defs>
<linearGradient id="paint0_linear_113_4453" x1="40.287" y1="86.126" x2="40.287" y2="17.7322" gradientUnits="userSpaceOnUse">
<stop stop-color="#808080" stop-opacity="0.25"/>
<stop offset="0.54" stop-color="#808080" stop-opacity="0.12"/>
<stop offset="1" stop-color="#808080" stop-opacity="0.1"/>
</linearGradient>
<linearGradient id="paint1_linear_113_4453" x1="99.5846" y1="85.2613" x2="99.5846" y2="22.7961" gradientUnits="userSpaceOnUse">
<stop stop-color="#808080" stop-opacity="0.25"/>
<stop offset="0.54" stop-color="#808080" stop-opacity="0.12"/>
<stop offset="1" stop-color="#808080" stop-opacity="0.1"/>
</linearGradient>
</defs>
</svg>
